<?xml version="1.0" encoding="utf-8"?>
<!-- Generator: Adobe Illustrator 27.0.0, SVG Export Plug-In . SVG Version: 6.00 Build 0)  -->
<svg version="1.1" id="Layer_1" xmlns="http://www.w3.org/2000/svg" xmlns:xlink="http://www.w3.org/1999/xlink" x="0px" y="0px"
	 viewBox="0 0 50 50" style="enable-background:new 0 0 50 50;" xml:space="preserve">
<style type="text/css">
	.st0{fill:#FFFFFF;}
	.st1{fill:#020202;}
	.st2{fill:#030303;}
	.st3{fill:#090909;}
	.st4{fill:#0B0B0B;}
	.st5{fill:#0A0A0A;}
	.st6{fill:#060606;}
	.st7{fill:#050606;}
	.st8{fill:#FBFAFA;}
	.st9{fill:#0C0C0C;}
	.st10{fill:#191919;}
	.st11{fill:#202121;}
	.st12{fill:#FAF9F9;}
	.st13{fill:#F8F7F7;}
	.st14{fill:#FFFEFE;}
	.st15{fill:#ABAAAA;}
	.st16{fill:#B0AFAF;}
	.st17{fill:#FEFEFE;}
	.st18{fill:#222323;}
	.st19{fill:#1D1E1E;}
</style>
<g>
	<path class="st0" d="M49.98,25c0,8.09-0.01,16.19,0.02,24.28c0,0.6-0.12,0.72-0.72,0.72c-16.19-0.02-32.38-0.02-48.57,0
		C0.12,50,0,49.88,0,49.28C0.02,33.09,0.02,16.91,0,0.72C0,0.12,0.12,0,0.72,0c16.19,0.02,32.38,0.02,48.57,0
		C49.88,0,50,0.12,50,0.72C49.98,8.81,49.98,16.91,49.98,25z"/>
	<path class="st1" d="M6.01,26.22C6.02,20.36,6.03,14.5,6,8.64c0-0.78,0.18-1.01,0.98-0.98c1.96,0.06,3.93,0,5.89,0.02
		c0.49,0,0.75-0.04,0.81-0.66c0.12-1.1,0.78-1.58,1.91-1.61c0.3-0.01,0.6-0.01,0.9,0c1.18,0.06,2.19,0.18,2.63-1.47
		c0.38-1.41,2.16-2.1,3.6-1.92c1.44,0.18,2.79,1.33,3.06,2.75c0.12,0.6,0.38,0.66,0.87,0.64c0.77-0.03,1.53-0.02,2.3,0
		c1.14,0.02,1.77,0.52,1.87,1.63c0.05,0.56,0.26,0.64,0.74,0.63c2.06-0.02,4.13,0.01,6.19-0.02c0.62-0.01,0.79,0.18,0.79,0.79
		c-0.02,4.13-0.01,8.26-0.02,12.39c0,0.38,0.12,0.83-0.55,0.8c-0.67-0.03-0.4-0.5-0.4-0.79c-0.02-3.76-0.03-7.53,0.01-11.29
		c0.01-0.74-0.17-0.97-0.93-0.94c-1.63,0.06-3.26,0.05-4.89,0.01c-0.66-0.02-1.04,0.12-0.9,0.86c0.15,0.81-0.21,0.96-0.96,0.96
		c-5.13-0.03-10.26-0.03-15.39,0c-0.7,0-0.99-0.17-0.86-0.88c0.14-0.74-0.15-0.98-0.91-0.95c-1.6,0.06-3.2,0.06-4.79,0
		c-0.71-0.02-0.95,0.11-0.95,0.9C7.02,20.67,7.02,31.83,7,42.98c0,0.64,0.15,0.82,0.81,0.82c9.62-0.02,19.25-0.03,28.87,0
		c0.79,0,0.92-0.25,0.9-0.96c-0.05-2.06-0.02-4.13-0.01-6.19c0-0.33-0.16-0.76,0.48-0.74c0.61,0.02,0.48,0.43,0.48,0.77
		c0.01,2.46-0.01,4.93,0.01,7.39c0.01,0.57-0.16,0.72-0.73,0.72c-10.36-0.02-20.71-0.02-31.07,0.01c-0.79,0-0.74-0.37-0.74-0.9
		C6.02,38.01,6.01,32.12,6.01,26.22z"/>
	<path class="st2" d="M43.15,25.79c-1.2,1.14-2.4,2.3-3.62,3.42c-0.33,0.31-0.29,0.6-0.22,0.98c0.32,1.62,0.6,3.26,0.9,4.89
		c-1.6-0.86-3.15-1.68-4.68-2.54c-0.36-0.2-0.57,0.02-0.81,0.15c-1.12,0.59-2.23,1.19-3.34,1.77c-0.28,0.15-0.54,0.4-0.98,0.31
		c0.05-1.05,0.22-2.11,0.56-3.09c0.62-1.81-0.12-2.96-1.56-3.88c-0.73-0.3-1.2-0.92-1.7-1.48c-0.52-0.57-0.44-0.81,0.29-1.02
		c0.76-0.22,1.57-0.18,2.34-0.35c0.4,0.01,0.78-0.04,1.11-0.27c0.39-0.08,0.8,0.16,1.18-0.07c0.99-1.17,1.37-2.66,2.12-3.96
		c0.16-0.28,0.28-0.58,0.49-1.01c0.76,1.53,1.44,2.93,2.14,4.32c0.12,0.25,0.13,0.6,0.5,0.66c0.34,0.13,0.71,0.05,1.06,0.1
		c0.37,0.22,0.77,0.22,1.18,0.23c0.74,0.14,1.5,0.13,2.23,0.32C42.66,25.34,43.13,25.26,43.15,25.79z"/>
	<path class="st3" d="M10,27.5c0-1.16,0.02-2.33-0.01-3.49c-0.01-0.48,0.14-0.62,0.62-0.62c2.19,0.02,4.39,0.03,6.58,0
		c0.56-0.01,0.64,0.21,0.63,0.69c-0.02,2.23-0.03,4.46,0,6.68c0.01,0.52-0.14,0.67-0.66,0.67c-2.16-0.03-4.32-0.03-6.48,0
		c-0.6,0.01-0.71-0.21-0.69-0.74C10.02,29.63,10,28.56,10,27.5z"/>
	<path class="st4" d="M17.82,37.79c0,1.06-0.05,2.13,0.02,3.19c0.04,0.7-0.24,0.82-0.86,0.81c-2.06-0.03-4.13-0.03-6.19,0
		c-0.58,0.01-0.82-0.11-0.81-0.76c0.04-2.2,0.03-4.39,0.01-6.59c-0.01-0.5,0.11-0.7,0.66-0.7c2.16,0.03,4.33,0.03,6.49,0
		c0.61-0.01,0.71,0.23,0.69,0.75C17.79,35.6,17.82,36.69,17.82,37.79z"/>
	<path class="st5" d="M17.82,17.21c0,1.1-0.03,2.19,0.01,3.29c0.02,0.53-0.16,0.68-0.68,0.67c-2.16-0.02-4.32-0.02-6.48,0
		c-0.52,0.01-0.69-0.15-0.68-0.68c0.02-2.26,0.02-4.52,0-6.77c-0.01-0.5,0.18-0.61,0.64-0.61c2.19,0.02,4.38,0.03,6.58,0
		c0.58-0.01,0.64,0.24,0.63,0.72C17.8,14.95,17.82,16.08,17.82,17.21z"/>
	<path class="st6" d="M24,25.57c-0.59-0.35-0.6-1.12-1.24-1.56c1.28-0.21,2.41-0.42,3.55-0.56c0.46-0.05,0.69-0.26,0.87-0.64
		c0.47-1.02,0.97-2.02,1.52-3.15c0.68,1.31,1.3,2.53,1.93,3.74c0.16,0.39-0.08,0.55-0.38,0.66c-0.33,0.12-0.56-0.05-0.78-0.29
		c-0.3-0.34-0.34-0.86-0.75-1.12c-0.25,0.08-0.27,0.3-0.35,0.48c-0.38,0.91-0.91,1.6-2.04,1.57c-0.27-0.01-0.67-0.02-0.77,0.31
		c-0.1,0.3,0.26,0.43,0.46,0.57c0.82,0.59,1.15,1.32,0.81,2.32c-0.09,0.27-0.21,0.56-0.06,0.91c0.44,0,0.76-0.32,1.16-0.45
		c0.36-0.12,0.73-0.23,0.85,0.31c0.08,0.26,0.13,0.5-0.19,0.66c-1.14,0.58-2.26,1.18-3.52,1.83c0.25-1.29,0.15-2.48,0.56-3.61
		c0.06-0.16-0.04-0.38-0.07-0.57C24.98,26.59,24.34,26.24,24,25.57z"/>
	<path class="st7" d="M39.8,23.57c0.63-1.25,1.26-2.49,1.97-3.9c0.55,1.11,1.08,2.09,1.53,3.1c0.2,0.46,0.46,0.64,0.94,0.7
		c1.11,0.14,2.21,0.34,3.37,0.53c-0.67,0.99-1.43,1.81-2.28,2.52c-0.52,0.43-0.59,0.87-0.45,1.48c0.22,1,0.37,2.01,0.58,3.21
		c-1.3-0.69-2.46-1.3-3.61-1.9c-0.48-0.25-0.14-0.54-0.04-0.82c0.16-0.29,0.36-0.22,0.56-0.04c0.21,0.21,0.44,0.38,0.75,0.39
		c0.91,0.25,0.83-0.39,0.74-0.9c-0.08-0.45-0.34-0.87-0.06-1.33l0,0c0.24-0.72,0.95-1.08,1.36-1.69c-0.7-0.35-1.54-0.1-2.19-0.52
		c-0.64-0.41-0.57-1.32-1.17-1.78C40.47,24.35,40.47,24.35,39.8,23.57z"/>
	<path class="st8" d="M28.77,28.69c-0.22-0.41-0.49-0.33-0.81-0.12c-0.25,0.16-0.52,0.28-0.79,0.42c-0.23,0.12-0.47,0.23-0.76,0.37
		c0-0.21-0.04-0.38,0.01-0.52c0.5-1.46,0.28-2.68-1.13-3.53c-0.21-0.13-0.35-0.36-0.25-0.59c0.09-0.21,0.35-0.14,0.52-0.13
		c1.87,0.16,2.56-1.12,3.05-2.68c0.5,0.46,0.62,0.99,0.83,1.44c0.39,0.83,0.75,0.78,1.18,0.06c0.7,0.35,1.03,1.31,2,1.21
		c-0.36,0.28-0.8,0.13-1.2,0.21c-0.29,0.28-0.75,0.06-1.04,0.36c-0.98,0.15-1.95,0.3-2.99,0.46c0.54,0.87,1.45,1.35,2,2.16
		C28.81,27.84,28.74,28.23,28.77,28.69z"/>
	<path class="st9" d="M27.41,16.22c-2.16,0-4.33,0-6.49,0c-0.33,0-0.74,0.16-0.73-0.48c0.01-0.59,0.36-0.51,0.73-0.51
		c4.36,0,8.73,0,13.09,0c0.39,0,0.81-0.1,0.79,0.56c-0.02,0.66-0.48,0.42-0.78,0.43C31.8,16.23,29.6,16.22,27.41,16.22z"/>
	<path class="st10" d="M26.37,19.15c-1.83,0-3.66,0-5.49,0c-0.31,0-0.68,0.1-0.7-0.44c-0.02-0.61,0.37-0.51,0.73-0.51
		c3.69,0,7.39,0,11.08,0c0.35,0,0.64-0.04,0.64,0.48c-0.01,0.54-0.34,0.47-0.67,0.47C30.1,19.14,28.23,19.14,26.37,19.15
		C26.37,19.14,26.37,19.14,26.37,19.15z"/>
	<path class="st8" d="M39.8,23.57c0.64,0.58,1.06,0.44,1.32-0.38c0.13-0.41,0.36-0.78,0.68-1.48c0.54,2.07,1.64,3.19,3.8,2.82
		c-0.39,1.03-1.2,1.47-1.82,2.08c-0.03-0.24-0.34-0.32-0.25-0.69c0.15-0.61-0.27-0.02-0.39-0.13c-0.99-0.49-2.12-0.31-3.15-0.62
		c-0.28-0.29-0.75-0.06-1.03-0.36c-0.37-0.04-0.76,0.05-1.09-0.19c0.44-0.18,1.32,0.41,1.22-0.74
		C39.07,23.49,39.63,23.83,39.8,23.57z"/>
	<path class="st9" d="M25.03,39.8c-1.37,0-2.73,0.01-4.1-0.01c-0.32,0-0.75,0.18-0.75-0.46c-0.01-0.59,0.33-0.53,0.71-0.53
		c2.76,0,5.53,0,8.29,0c0.38,0,0.71-0.05,0.7,0.53c-0.01,0.64-0.44,0.46-0.76,0.46C27.76,39.81,26.4,39.8,25.03,39.8z"/>
	<path class="st11" d="M23.74,35.95c1,0,1.99,0,2.99,0c0.3,0,0.6-0.05,0.6,0.43c0,0.48-0.25,0.53-0.63,0.52
		c-1.96-0.01-3.92-0.01-5.88-0.01c-0.34,0-0.65,0.04-0.64-0.49c0-0.56,0.36-0.45,0.67-0.45C21.81,35.95,22.78,35.95,23.74,35.95z"/>
	<path class="st12" d="M24,25.57c0.64,0.34,1.12,0.86,1.54,1.43c-0.21-0.01-0.03,0.55-0.33,0.29c-0.89-0.78-0.87-0.8-1.38,0.21
		c-0.51-0.59-2.55-1.02-3.36-0.69c-0.1,0.04-0.31,0.08-0.12,0.24c0.41,0.37-0.04,0.57-0.19,0.58c-0.42,0.01-0.26-0.29-0.22-0.56
		c0.24-1.69,0.23-1.7,1.94-1.68c0.44,0.01,0.93-0.2,1.32,0.21c-0.43,0.35-0.94,0.22-1.42,0.26c-0.37,0.03-0.77-0.08-1.14,0.24
		c1.31,0.44,1.92,0.31,2.55-0.5C23.46,25.67,23.76,26.22,24,25.57z"/>
	<path class="st1" d="M24.59,29.31l0-0.04c-0.06,0.29-0.3,0.21-0.48,0.22c-1.09,0.01-2.19,0-3.28,0c-0.37,0-0.75,0.05-0.73-0.53
		c0.02-0.51,0.36-0.47,0.69-0.47c0.96,0,1.93,0.06,2.88-0.02C24.37,28.42,24.54,28.75,24.59,29.31z"/>
	<path class="st13" d="M38.82,21.34c0-4.42,0-8.84,0-13.26c0.03,0,0.07,0,0.1,0c0,4.43,0,8.87,0,13.3
		C38.88,21.36,38.85,21.35,38.82,21.34z"/>
	<path class="st12" d="M24.59,29.31c-0.03-0.6-0.32-0.82-0.94-0.77c-0.96,0.06-1.92,0.02-2.89,0.01c-0.32,0-0.57,0-0.57,0.46
		c0,0.46,0.25,0.48,0.57,0.46c1.28-0.1,2.57,0.22,3.83-0.19c-0.12,0.39-0.45,0.32-0.74,0.32c-1.03,0.01-2.05-0.02-3.08,0.01
		c-0.53,0.01-0.76-0.13-0.79-0.72c-0.03-0.7,0.38-0.48,0.75-0.51c1.14-0.07,2.28,0.09,3.44-0.11
		C24.75,28.18,24.55,28.91,24.59,29.31z"/>
	<path class="st13" d="M38.82,43.53c0-2.02,0-4.04,0-6.07c0.03,0,0.07,0,0.1,0c0,2.03,0,4.07,0,6.1
		C38.88,43.55,38.85,43.54,38.82,43.53z"/>
	<path class="st8" d="M43.8,26.6c-0.08,0.91,0.31,1.75,0.33,2.72c-0.4-0.07-0.72-0.26-1.01-0.5c0.52-0.42,0.77-0.89,0.42-1.55
		C43.4,27.01,43.55,26.77,43.8,26.6z"/>
	<path class="st8" d="M42.37,28.44c-0.19-0.07-0.38-0.09-0.56,0.04c0.04-0.08,0.09-0.17,0.13-0.25c0.14-0.25-0.21-0.65,0.25-0.79
		c0.17-0.05,0.33,0,0.44,0.15C42.93,27.98,42.42,28.14,42.37,28.44z"/>
	<path class="st14" d="M22.22,9.42c-2.3,0-4.59-0.02-6.89,0.01c-0.55,0.01-0.73-0.12-0.74-0.71c-0.04-2.36-0.07-2.36,2.33-2.36
		c0.27,0,0.53,0,0.8,0c0.53-0.01,1.12,0.13,1.58-0.06c0.57-0.24,0.22-0.94,0.37-1.42c0.36-1.14,1.48-1.91,2.76-1.86
		c1.27,0.05,2.34,0.91,2.46,2.28c0.09,1.02,0.52,1.14,1.36,1.08c0.86-0.07,1.73-0.01,2.59-0.02c0.73-0.01,1.08,0.33,1.12,1.08
		c0.11,1.99,0.12,1.99-1.85,1.99C26.14,9.42,24.18,9.42,22.22,9.42z"/>
	<path class="st5" d="M6.46,43.18c0-11.24,0-22.48,0-33.71c0.03,0,0.05,0,0.08,0c0,11.24,0,22.48,0,33.71
		C6.52,43.18,6.49,43.18,6.46,43.18z"/>
	<path class="st14" d="M38.87,33.24c-1-0.53-1.9-0.93-2.73-1.46c-0.65-0.42-1.18-0.39-1.81,0c-0.84,0.52-1.74,0.95-2.72,1.48
		c0.17-1.05,0.26-2.01,0.5-2.93c0.22-0.85-0.01-1.42-0.64-2c-0.67-0.62-1.21-1.38-1.78-2.05c0.91-0.14,1.97-0.37,3.05-0.44
		c0.63-0.04,0.85-0.34,1.03-0.85c0.38-1.06,0.89-2.06,1.51-3.14c0.53,1.13,1.03,2.14,1.46,3.17c0.19,0.47,0.36,0.76,0.95,0.81
		c1.08,0.08,2.15,0.3,3.44,0.49c-0.86,0.84-1.59,1.58-2.36,2.28c-0.44,0.39-0.62,0.77-0.47,1.38
		C38.55,31.01,38.67,32.06,38.87,33.24z"/>
	<path class="st15" d="M30.39,25.18c0.19-0.56,0.65-0.36,1.04-0.36C31.25,25.42,30.77,25.16,30.39,25.18z"/>
	<path class="st16" d="M38.98,24.81c0.39-0.01,0.84-0.2,1.03,0.36C39.61,25.2,39.18,25.32,38.98,24.81z"/>
	<path class="st0" d="M16.88,27.42c0,0.8-0.03,1.59,0.01,2.39c0.03,0.54-0.18,0.68-0.68,0.67c-1.53-0.02-3.05-0.02-4.58,0
		c-0.5,0.01-0.7-0.11-0.69-0.66c0.03-1.59,0.02-3.19,0.01-4.78c0-0.43,0.04-0.67,0.57-0.65c1.59,0.03,3.19,0.03,4.78,0
		c0.52-0.01,0.6,0.2,0.59,0.64C16.86,25.83,16.88,26.62,16.88,27.42z"/>
	<path class="st17" d="M10.95,37.53c0.12-0.82-0.45-2.13,0.23-2.69c0.58-0.48,1.84-0.14,2.8-0.16c0.73-0.01,1.46,0.01,2.19-0.01
		c0.49-0.02,0.72,0.12,0.71,0.67c-0.03,1.63-0.03,3.26,0,4.89c0.01,0.5-0.21,0.61-0.65,0.61c-1.56-0.02-3.13-0.03-4.69,0
		c-0.51,0.01-0.61-0.2-0.6-0.65C10.97,39.36,10.95,38.52,10.95,37.53z"/>
	<path class="st17" d="M16.88,17.32c-0.1,0.82,0.43,2.09-0.21,2.71c-0.58,0.56-1.84,0.16-2.8,0.15c-0.95-0.01-2.22,0.43-2.77-0.19
		c-0.47-0.53-0.14-1.77-0.15-2.7c-0.01-0.57,0-1.13,0-1.7c0-1.54,0-1.54,1.6-1.54c1.23,0,2.46,0.02,3.7-0.01
		c0.47-0.01,0.66,0.14,0.64,0.63C16.86,15.5,16.88,16.33,16.88,17.32z"/>
	<path class="st18" d="M23.19,25.61c0.12,0.66,0.02,1.08-0.83,0.97c-0.55-0.08-1.13-0.03-1.69-0.01c-0.43,0.02-0.47-0.22-0.48-0.56
		c-0.01-0.39,0.23-0.42,0.52-0.41C21.53,25.61,22.36,25.61,23.19,25.61C23.19,25.61,23.19,25.61,23.19,25.61z"/>
	<path class="st19" d="M22.78,5.99c0.04,0.52-0.3,0.46-0.59,0.48c-0.37,0.03-0.42-0.18-0.43-0.49c0-0.36,0.17-0.45,0.49-0.44
		C22.58,5.54,22.85,5.6,22.78,5.99z"/>
</g>
</svg>
