<?xml version="1.0" encoding="utf-8"?>
<!-- Generator: Adobe Illustrator 27.0.0, SVG Export Plug-In . SVG Version: 6.00 Build 0)  -->
<svg version="1.1" id="Layer_1" xmlns="http://www.w3.org/2000/svg" xmlns:xlink="http://www.w3.org/1999/xlink" x="0px" y="0px"
	 viewBox="0 0 50 50" style="enable-background:new 0 0 50 50;" xml:space="preserve">
<style type="text/css">
	.st0{fill:#FFFFFF;}
</style>
<g>
	<path class="st0" d="M3.61,46.16c0-14.11,0-28.21,0-42.32c14.26,0,28.52,0,42.78,0c0,14.11,0,28.21,0,42.32
		C32.13,46.16,17.87,46.16,3.61,46.16z M34.71,11.09c-0.75,0.1-1.6-0.03-1.9,0.31c-0.75,0.86-1.37,0.44-2.04,0.1
		c-1.32-0.66-2.61-1.37-3.95-2.01c-1.44-0.69-3-0.84-4.42-0.17c-1.84,0.87-3.35,1.02-4.59-0.89c-0.37-0.56-0.85-0.51-1.34-0.04
		c-2.18,2.1-4.37,4.18-6.57,6.25c-0.59,0.55-0.56,1.03,0.03,1.53c0.65,0.55,1.33,1.08,1.93,1.68c3.1,3.04,6.19,6.1,9.26,9.17
		c0.6,0.6,1.07,0.73,1.75,0.07c1.6-1.57,3.28-3.07,4.89-4.64c0.71-0.69,1.36-1.31,2.5-1.32c0.59,0,1.4-0.34,1.73-0.8
		c1.06-1.5,2.53-1.41,4.06-1.35c0.91,0.04,1.82-0.04,2.72,0.02c0.94,0.06,1.23-0.35,1.2-1.23c-0.05-1.38-0.01-2.77-0.01-4.16
		c0-3.61,0-3.61-3.66-3.57C35.47,10.07,34.66,10.03,34.71,11.09z M7.57,33.64c0,1.18-0.06,2.37,0.04,3.54
		c0.03,0.33,0.49,0.88,0.79,0.9c1.18,0.1,2.38,0.06,3.58,0.03c0.21-0.01,0.59-0.16,0.61-0.29c0.14-0.87,0.77-0.75,1.38-0.76
		c0.28,0,0.69-0.03,0.8-0.2c0.6-0.89,1.28-0.47,1.92-0.16c1.29,0.63,2.55,1.32,3.82,1.97c1.34,0.68,2.73,0.86,4.17,0.36
		c3.33-1.15,6.67-2.28,9.98-3.47c1.58-0.57,2.3-1.93,1.86-3.23c-0.49-1.41-1.66-1.95-3.41-1.5c-1.23,0.31-2.45,0.69-3.68,1
		c-0.27,0.07-0.75,0.05-0.84-0.1c-0.85-1.38-2.3-1.56-3.66-2c-1.15-0.37-2.41-0.71-3.33-1.43c-2.32-1.83-4.96-1.75-7.04,0.41
		c-0.29,0.3-0.81,0.53-1.23,0.55c-1.56,0.06-3.13,0.05-4.69,0.02c-0.81-0.02-1.1,0.3-1.07,1.08C7.6,31.44,7.57,32.54,7.57,33.64z"/>
	<path d="M34.71,11.09c-0.06-1.06,0.76-1.02,1.58-1.03c3.66-0.04,3.66-0.04,3.66,3.57c0,1.39-0.04,2.77,0.01,4.16
		c0.03,0.88-0.26,1.29-1.2,1.23c-0.9-0.06-1.81,0.02-2.72-0.02c-1.53-0.06-3-0.14-4.06,1.35c-0.32,0.46-1.14,0.8-1.73,0.8
		c-1.14,0-1.79,0.62-2.5,1.32c-1.61,1.57-3.29,3.06-4.89,4.64c-0.67,0.66-1.14,0.53-1.75-0.07c-3.07-3.07-6.16-6.13-9.26-9.17
		c-0.61-0.6-1.28-1.12-1.93-1.68c-0.59-0.5-0.61-0.98-0.03-1.53c2.2-2.07,4.39-4.16,6.57-6.25c0.49-0.47,0.97-0.53,1.34,0.04
		c1.23,1.91,2.75,1.76,4.59,0.89c1.42-0.68,2.98-0.52,4.42,0.17c1.33,0.64,2.62,1.35,3.95,2.01c0.68,0.34,1.3,0.76,2.04-0.1
		C33.11,11.06,33.97,11.19,34.71,11.09z M20.79,11.29c1.17,1.39,2.39,2.65,4.36,2.86c0.64,0.07,1.29,0.29,1.88,0.57
		c0.38,0.18,0.67,0.57,0.99,0.87c-0.45,0.09-0.94,0.34-1.34,0.24c-1.67-0.42-3.3-0.97-4.96-1.43c-0.74-0.21-1.56-0.11-1.66,0.74
		c-0.06,0.48,0.44,1.1,0.83,1.54c0.24,0.26,0.76,0.27,1.13,0.43c1.86,0.79,3.88,1.05,5.57,2.42c1.58,1.28,4.52,0.31,4.81-1.46
		c0.26-1.57,0.05-3.21,0.05-4.48c-1.85-0.9-3.48-1.58-4.98-2.46C25.19,9.78,23.03,10.01,20.79,11.29z M23.1,18.76
		c-0.23,0.39-0.42,0.75-0.65,1.07c-0.93,1.26-2.22,1.68-3.7,1.35c-1.35-0.3-2.23-1.18-2.54-2.55c-0.33-1.45,0.09-2.68,1.3-3.56
		c1-0.73,2.07-1.37,3.12-2.04c-0.59-0.89-1.16-1.37-2.33-0.77c-0.61,0.31-1.65,0.31-2.27,0c-1.29-0.65-1.87-0.02-2.52,0.95
		c0.94,1.47,0.87,3.02,0.03,4.43c2.14,2.11,4.18,4.12,6.3,6.21c1.27-0.77,2.64-0.84,4.13-0.22c0.35,0.15,1.04-0.33,1.5-0.63
		c0.2-0.13,0.34-0.55,0.3-0.8c-0.17-0.89-0.43-1.77-0.69-2.76C24.5,19.24,23.8,19,23.1,18.76z M36.1,11.34c0,2.2,0,4.28,0,6.39
		c0.81,0,1.53,0,2.32,0c0-2.14,0-4.23,0-6.39C37.64,11.34,36.92,11.34,36.1,11.34z M18.22,16.04c-0.75,0.47-1.13,1.37-0.77,2.51
		c0.32,1,1.08,1.51,2.13,1.5c1.1-0.01,1.84-0.53,2.1-1.42C20.54,17.78,19.48,16.98,18.22,16.04z M34.73,12.59
		c-0.12-0.1-0.23-0.2-0.35-0.3c-0.22,0.28-0.61,0.55-0.62,0.84c-0.07,1.29-0.01,2.59-0.04,3.88c-0.02,0.77,0.32,0.89,1.01,0.65
		C34.73,15.97,34.73,14.28,34.73,12.59z M12.76,13.91c-0.69,0.66-1.12,1.06-1.61,1.52c0.51,0.47,0.93,0.86,1.61,1.48
		C12.76,15.78,12.76,15,12.76,13.91z M15.79,10.71c0.05,0.1,0.11,0.2,0.16,0.3c0.8,0,1.61,0,2.37,0c-0.44-0.57-0.8-1.03-1.04-1.34
		C16.71,10.07,16.25,10.39,15.79,10.71z M23.35,24.95c-0.03-0.11-0.07-0.22-0.1-0.32c-0.81,0-1.61,0-2.61,0
		c0.61,0.64,1.02,1.06,1.4,1.45C22.5,25.67,22.92,25.31,23.35,24.95z"/>
	<path d="M7.57,33.64c0-1.1,0.03-2.2-0.01-3.3c-0.03-0.78,0.26-1.1,1.07-1.08c1.56,0.04,3.13,0.05,4.69-0.02
		c0.42-0.02,0.94-0.25,1.23-0.55c2.08-2.15,4.72-2.23,7.04-0.41c0.92,0.72,2.18,1.06,3.33,1.43c1.36,0.44,2.82,0.62,3.66,2
		c0.09,0.15,0.58,0.17,0.84,0.1c1.23-0.31,2.45-0.68,3.68-1c1.75-0.44,2.93,0.09,3.41,1.5c0.45,1.3-0.28,2.66-1.86,3.23
		c-3.31,1.19-6.65,2.32-9.98,3.47c-1.44,0.5-2.84,0.32-4.17-0.36c-1.28-0.65-2.54-1.34-3.82-1.97c-0.64-0.32-1.32-0.73-1.92,0.16
		c-0.12,0.17-0.53,0.19-0.8,0.2c-0.61,0.01-1.24-0.11-1.38,0.76c-0.02,0.13-0.4,0.28-0.61,0.29c-1.19,0.03-2.39,0.08-3.58-0.03
		c-0.3-0.03-0.76-0.57-0.79-0.9C7.51,36.01,7.57,34.82,7.57,33.64z M14.87,32.32c0.06,0.01,0.11,0.02,0.17,0.03
		c0,0.57-0.05,1.15,0.02,1.71c0.04,0.35,0.17,0.87,0.42,1c1.79,0.87,3.63,1.64,5.44,2.48c1.21,0.56,2.39,0.71,3.69,0.24
		c3.08-1.11,6.18-2.15,9.27-3.23c0.34-0.12,0.78-0.24,0.96-0.5c0.27-0.39,0.57-0.98,0.44-1.35c-0.12-0.35-0.82-0.81-1.17-0.74
		c-1.72,0.34-3.42,0.82-5.11,1.3c-0.18,0.05-0.31,0.35-0.43,0.55c-0.77,1.22-1.62,1.61-3.01,1.23c-1.74-0.47-3.46-1-5.16-1.57
		c-0.35-0.12-0.59-0.53-0.88-0.81c0.42-0.1,0.88-0.37,1.24-0.28c1.66,0.42,3.3,0.95,4.95,1.44c0.8,0.24,1.53,0.19,1.82-0.7
		c0.29-0.89-0.31-1.36-1.06-1.65c-0.49-0.19-1.03-0.28-1.52-0.47c-1.58-0.6-3.27-0.86-4.63-2.09c-1.47-1.32-3.81-0.91-4.84,0.76
		C15,30.4,15.05,31.43,14.87,32.32z M11.43,36.86c0-2.2,0-4.24,0-6.28c-0.92,0-1.75,0-2.56,0c0,2.14,0,4.19,0,6.28
		C9.76,36.86,10.56,36.86,11.43,36.86z M13.1,30.39c-0.12,0.11-0.23,0.21-0.35,0.32c0,1.46-0.03,2.93,0.02,4.39
		c0.01,0.25,0.33,0.5,0.51,0.74c0.17-0.25,0.49-0.5,0.5-0.76c0.05-1.3,0.06-2.61-0.01-3.91C13.75,30.9,13.33,30.65,13.1,30.39z"/>
	<path class="st0" d="M20.79,11.29c2.23-1.28,4.4-1.5,6.68-0.17c1.5,0.88,3.13,1.55,4.98,2.46c0,1.27,0.21,2.91-0.05,4.48
		c-0.3,1.77-3.23,2.74-4.81,1.46c-1.69-1.36-3.71-1.63-5.57-2.42c-0.38-0.16-0.89-0.16-1.13-0.43c-0.39-0.43-0.89-1.05-0.83-1.54
		c0.1-0.85,0.93-0.94,1.66-0.74c1.66,0.46,3.29,1.01,4.96,1.43c0.4,0.1,0.89-0.15,1.34-0.24c-0.33-0.3-0.61-0.69-0.99-0.87
		c-0.59-0.27-1.24-0.5-1.88-0.57C23.18,13.93,21.96,12.68,20.79,11.29z"/>
	<path class="st0" d="M23.1,18.76c0.7,0.24,1.4,0.48,1.98,0.68c0.25,0.99,0.52,1.87,0.69,2.76c0.05,0.25-0.1,0.67-0.3,0.8
		c-0.46,0.3-1.15,0.78-1.5,0.63c-1.49-0.63-2.86-0.56-4.13,0.22c-2.12-2.09-4.16-4.1-6.3-6.21c0.84-1.41,0.92-2.95-0.03-4.43
		c0.65-0.97,1.23-1.6,2.52-0.95c0.61,0.31,1.66,0.31,2.27,0c1.17-0.6,1.74-0.12,2.33,0.77c-1.04,0.68-2.12,1.31-3.12,2.04
		c-1.21,0.88-1.62,2.11-1.3,3.56c0.31,1.36,1.19,2.25,2.54,2.55c1.48,0.33,2.78-0.08,3.7-1.35C22.68,19.51,22.87,19.15,23.1,18.76z"
		/>
	<path class="st0" d="M36.1,11.34c0.83,0,1.55,0,2.32,0c0,2.16,0,4.25,0,6.39c-0.79,0-1.51,0-2.32,0
		C36.1,15.63,36.1,13.54,36.1,11.34z"/>
	<path class="st0" d="M18.22,16.04c1.26,0.95,2.32,1.74,3.46,2.6c-0.25,0.89-1,1.42-2.1,1.42c-1.05,0.01-1.81-0.51-2.13-1.5
		C17.09,17.4,17.48,16.5,18.22,16.04z"/>
	<path class="st0" d="M34.73,12.59c0,1.69,0,3.37,0,5.08c-0.69,0.24-1.03,0.11-1.01-0.65c0.03-1.29-0.03-2.59,0.04-3.88
		c0.02-0.29,0.41-0.56,0.62-0.84C34.5,12.4,34.61,12.5,34.73,12.59z"/>
	<path class="st0" d="M12.76,13.91c0,1.09,0,1.87,0,3.01c-0.67-0.62-1.1-1.02-1.61-1.48C11.64,14.97,12.06,14.57,12.76,13.91z"/>
	<path class="st0" d="M15.79,10.71c0.46-0.32,0.92-0.64,1.49-1.04c0.24,0.3,0.6,0.77,1.04,1.34c-0.77,0-1.57,0-2.37,0
		C15.9,10.91,15.84,10.81,15.79,10.71z"/>
	<path class="st0" d="M23.35,24.95c-0.42,0.36-0.85,0.72-1.32,1.13c-0.38-0.39-0.78-0.81-1.4-1.45c1,0,1.81,0,2.61,0
		C23.28,24.73,23.31,24.84,23.35,24.95z"/>
	<path class="st0" d="M14.87,32.32c0.18-0.89,0.13-1.92,0.58-2.65c1.03-1.67,3.37-2.08,4.84-0.76c1.37,1.23,3.05,1.48,4.63,2.09
		c0.49,0.19,1.03,0.28,1.52,0.47c0.75,0.29,1.35,0.76,1.06,1.65c-0.29,0.89-1.02,0.94-1.82,0.7c-1.64-0.5-3.28-1.02-4.95-1.44
		c-0.36-0.09-0.82,0.18-1.24,0.28c0.29,0.28,0.54,0.69,0.88,0.81c1.71,0.57,3.43,1.1,5.16,1.57c1.39,0.38,2.24-0.01,3.01-1.23
		c0.13-0.2,0.25-0.5,0.43-0.55c1.69-0.47,3.39-0.96,5.11-1.3c0.35-0.07,1.05,0.39,1.17,0.74c0.13,0.37-0.17,0.96-0.44,1.35
		c-0.18,0.26-0.62,0.38-0.96,0.5c-3.09,1.08-6.19,2.12-9.27,3.23c-1.29,0.46-2.48,0.32-3.69-0.24c-1.81-0.84-3.65-1.61-5.44-2.48
		c-0.25-0.12-0.38-0.64-0.42-1c-0.07-0.56-0.02-1.14-0.02-1.71C14.98,32.34,14.92,32.33,14.87,32.32z"/>
	<path class="st0" d="M11.43,36.86c-0.87,0-1.68,0-2.56,0c0-2.08,0-4.13,0-6.28c0.81,0,1.64,0,2.56,0
		C11.43,32.62,11.43,34.66,11.43,36.86z"/>
	<path class="st0" d="M13.1,30.39c0.23,0.26,0.65,0.51,0.67,0.78c0.07,1.3,0.06,2.61,0.01,3.91c-0.01,0.26-0.32,0.51-0.5,0.76
		c-0.18-0.25-0.5-0.49-0.51-0.74c-0.05-1.46-0.02-2.93-0.02-4.39C12.87,30.6,12.98,30.49,13.1,30.39z"/>
</g>
</svg>
