<?xml version="1.0" encoding="utf-8"?>
<!-- Generator: Adobe Illustrator 27.0.0, SVG Export Plug-In . SVG Version: 6.00 Build 0)  -->
<svg version="1.1" id="Layer_1" xmlns="http://www.w3.org/2000/svg" xmlns:xlink="http://www.w3.org/1999/xlink" x="0px" y="0px"
	 viewBox="0 0 50 50" style="enable-background:new 0 0 50 50;" xml:space="preserve">
<style type="text/css">
	.st0{fill:#FFFFFF;}
</style>
<g>
	<g>
		<path class="st0" d="M0,0c16.67,0,33.33,0,50,0c0,16.67,0,33.33,0,50c-16.67,0-33.33,0-50,0C0,33.33,0,16.67,0,0z M26.96,35.51
			c-0.03-0.31-0.05-0.57-0.08-0.82c-0.16-1.29-1.52-2.03-2.61-1.31c-1.7,1.12-3.36,2.3-4.98,3.54c-1.03,0.78-0.99,2.06,0.05,2.83
			c1.58,1.18,3.2,2.33,4.84,3.43c0.99,0.66,2.43,0.2,2.6-0.9c0.13-0.82,0.58-0.94,1.19-1.05c4.07-0.76,7.37-2.94,10.02-5.96
			c3.24-3.69,4.58-8.12,4.13-13.04c-0.4-4.4-2.05-8.2-5.39-11.19c-0.96-0.86-2.1-1.07-3.23-0.54c-1.12,0.52-1.68,1.54-1.63,2.84
			c0.04,0.96,0.64,1.59,1.22,2.25c4.34,4.84,4.26,11.85-0.19,16.58C31.3,33.89,29.34,35.01,26.96,35.51z M11.41,24.26
			c0.02-2.56,0.57-4.46,1.63-6.26c1.66-2.82,3.95-4.79,7.05-5.83c0.46-0.15,0.87-0.31,0.93,0.5c0.12,1.62,1.56,2.27,2.9,1.32
			c1.34-0.94,2.65-1.92,3.94-2.92c0.43-0.33,0.78-0.77,1.16-1.16c0.44-0.44,0.47-0.97,0.02-1.33c-1.85-1.49-3.71-2.99-5.65-4.35
			c-0.79-0.55-2.09,0.02-2.25,0.95c-0.15,0.92-0.73,0.98-1.38,1.13c-3.27,0.71-6.17,2.24-8.54,4.54C6.59,15.32,4.9,20.86,6.01,27.21
			c0.22,1.25,0.72,2.45,1.15,3.65c0.07,0.19,0.49,0.26,0.75,0.38c0.09-0.27,0.21-0.53,0.25-0.8c0.02-0.15-0.12-0.32-0.18-0.48
			c-1.06-2.63-1.43-5.38-1.05-8.16c0.62-4.58,2.65-8.38,6.43-11.19c2.04-1.52,4.25-2.65,6.73-3.23c0.63-0.15,1.02-0.08,0.94,0.72
			c-0.06,0.61-0.05,1.23,0,1.84c0.05,0.62-0.2,0.87-0.78,1.02c-3.51,0.9-6.09,3.14-8.05,6.06c-1.72,2.56-2.12,5.52-1.77,8.57
			c0.35,2.96,1.77,5.36,3.81,7.46c0.9,0.94,0.91,1.95,0.12,2.69c-0.73,0.67-1.99,0.62-2.74-0.22c-0.8-0.89-1.47-1.89-2.26-2.79
			c-0.19-0.22-0.6-0.24-0.91-0.36c-0.01,0.31-0.15,0.72,0,0.92c0.85,1.14,1.71,2.3,2.7,3.32c0.86,0.89,2.33,0.95,3.42,0.36
			c1.05-0.57,1.67-1.68,1.4-2.95c-0.14-0.67-0.56-1.34-1.01-1.87C12.86,29.73,11.36,27.08,11.41,24.26z M30.52,25.66
			c1.02,0.01,1.7-0.34,2.02-1.24c0.3-0.87-0.09-1.52-0.69-2.11c-0.52-0.51-1-1.07-1.57-1.53c-0.2-0.16-0.6-0.08-0.91-0.11
			c0.04,0.3-0.02,0.68,0.14,0.87c0.53,0.62,1.18,1.14,1.69,1.78c0.18,0.22,0.08,0.66,0.11,1c-0.33-0.01-0.76,0.1-0.98-0.06
			c-0.67-0.5-1.28-1.08-1.88-1.67c-1.27-1.25-2.54-2.51-3.78-3.78c-0.49-0.5-0.88-0.54-1.4-0.02c-1.78,1.76-3.59,3.49-5.4,5.23
			c-0.15,0.14-0.29,0.34-0.46,0.39c-0.22,0.06-0.57,0.1-0.7-0.03c-0.17-0.17-0.23-0.5-0.22-0.75c0.01-0.16,0.21-0.34,0.35-0.48
			c1.9-1.85,3.8-3.71,5.72-5.54c0.89-0.85,1.9-0.83,2.81,0.02c0.7,0.66,1.35,1.38,2.07,2.02c0.19,0.17,0.59,0.12,0.89,0.16
			c-0.03-0.31,0.06-0.73-0.11-0.92c-0.72-0.8-1.48-1.58-2.3-2.28c-1.15-0.99-2.81-1.03-3.93,0c-2.1,1.94-4.15,3.93-6.16,5.95
			c-1,1-0.61,2.58,0.65,2.99c0.27,0.09,0.56,0.09,0.91,0.15c0,1.34-0.02,2.65,0.01,3.96c0.02,1.26,0.7,1.97,1.95,1.99
			c3.01,0.03,6.02,0.03,9.03,0c1.54-0.02,2.14-0.7,2.15-2.24C30.52,28.19,30.52,26.97,30.52,25.66z"/>
		<path d="M26.96,35.51c2.38-0.5,4.34-1.62,5.96-3.34c4.46-4.74,4.53-11.74,0.19-16.58c-0.59-0.66-1.19-1.28-1.22-2.25
			c-0.05-1.3,0.51-2.33,1.63-2.84c1.13-0.53,2.27-0.33,3.23,0.54c3.33,2.99,4.99,6.79,5.39,11.19c0.44,4.92-0.9,9.35-4.13,13.04
			c-2.66,3.03-5.95,5.21-10.02,5.96c-0.62,0.11-1.06,0.23-1.19,1.05c-0.18,1.1-1.62,1.56-2.6,0.9c-1.64-1.11-3.26-2.25-4.84-3.43
			c-1.04-0.78-1.07-2.05-0.05-2.83c1.62-1.23,3.28-2.42,4.98-3.54c1.09-0.71,2.45,0.02,2.61,1.31
			C26.91,34.94,26.93,35.2,26.96,35.51z M26.9,40.27c4.84-0.71,8.44-3.3,11.18-7.01c2.95-3.99,3.64-8.58,2.57-13.41
			c-0.69-3.12-2.27-5.77-4.63-7.94c-0.78-0.72-1.82-0.74-2.51-0.06c-0.69,0.68-0.7,1.63-0.03,2.44c0.26,0.31,0.54,0.61,0.81,0.92
			c4.6,5.32,4.04,13.73-1.21,18.4c-1.58,1.4-3.36,2.4-5.4,2.93c-0.28,0.07-0.72,0.34-0.73,0.55C26.86,38.12,26.9,39.17,26.9,40.27z
			 M25.79,38.3c0-1.08,0.02-2.16-0.01-3.23c-0.02-0.78-0.52-1.04-1.15-0.6c-1.48,1.03-2.94,2.07-4.4,3.13
			c-0.73,0.53-0.73,0.9-0.02,1.41c1.46,1.05,2.93,2.09,4.41,3.12c0.66,0.45,1.13,0.21,1.15-0.58C25.8,40.46,25.79,39.38,25.79,38.3z
			"/>
		<path d="M11.41,24.26c-0.05,2.83,1.45,5.48,3.53,7.9c0.45,0.53,0.87,1.2,1.01,1.87c0.27,1.27-0.35,2.38-1.4,2.95
			c-1.09,0.59-2.57,0.53-3.42-0.36c-0.99-1.02-1.84-2.18-2.7-3.32c-0.15-0.2-0.01-0.61,0-0.92c0.31,0.11,0.72,0.14,0.91,0.36
			c0.78,0.9,1.46,1.9,2.26,2.79c0.75,0.84,2.01,0.9,2.74,0.22c0.8-0.74,0.79-1.75-0.12-2.69c-2.03-2.1-3.46-4.51-3.81-7.46
			c-0.36-3.05,0.05-6,1.77-8.57c1.95-2.92,4.53-5.16,8.05-6.06c0.58-0.15,0.83-0.41,0.78-1.02c-0.05-0.61-0.06-1.23,0-1.84
			c0.08-0.81-0.31-0.87-0.94-0.72c-2.48,0.58-4.68,1.71-6.73,3.23c-3.78,2.81-5.81,6.62-6.43,11.19c-0.38,2.78-0.01,5.53,1.05,8.16
			c0.07,0.16,0.2,0.33,0.18,0.48c-0.03,0.27-0.16,0.54-0.25,0.8c-0.26-0.12-0.68-0.19-0.75-0.38c-0.44-1.2-0.94-2.4-1.15-3.65
			c-1.11-6.34,0.58-11.88,5.21-16.36c2.37-2.29,5.27-3.82,8.54-4.54c0.65-0.14,1.23-0.21,1.38-1.13c0.16-0.93,1.46-1.5,2.25-0.95
			c1.95,1.36,3.8,2.86,5.65,4.35c0.45,0.36,0.42,0.89-0.02,1.33c-0.39,0.39-0.73,0.83-1.16,1.16c-1.3,1-2.6,1.98-3.94,2.92
			c-1.34,0.94-2.78,0.29-2.9-1.32c-0.06-0.81-0.47-0.66-0.93-0.5c-3.1,1.04-5.39,3.01-7.05,5.83C11.98,19.8,11.43,21.69,11.41,24.26
			z M22.11,9.25c0,1.08-0.02,2.16,0.01,3.24c0.02,0.74,0.52,1.03,1.09,0.62c1.49-1.07,2.96-2.18,4.43-3.28
			c0.53-0.4,0.52-0.82,0-1.21c-1.45-1.08-2.9-2.16-4.37-3.21c-0.65-0.46-1.13-0.2-1.15,0.59C22.09,7.09,22.11,8.17,22.11,9.25z"/>
		<path d="M30.52,25.66c0,1.31,0,2.53,0,3.75c-0.01,1.54-0.61,2.22-2.15,2.24c-3.01,0.04-6.02,0.03-9.03,0
			c-1.26-0.01-1.93-0.73-1.95-1.99c-0.02-1.31-0.01-2.62-0.01-3.96c-0.35-0.05-0.64-0.06-0.91-0.15c-1.26-0.41-1.65-1.99-0.65-2.99
			c2.01-2.02,4.06-4.02,6.16-5.95c1.12-1.03,2.78-1,3.93,0c0.82,0.71,1.58,1.48,2.3,2.28c0.17,0.19,0.08,0.61,0.11,0.92
			c-0.3-0.05-0.69,0.01-0.89-0.16c-0.72-0.63-1.37-1.36-2.07-2.02c-0.91-0.85-1.92-0.87-2.81-0.02c-1.92,1.83-3.82,3.69-5.72,5.54
			c-0.14,0.14-0.34,0.31-0.35,0.48c-0.01,0.26,0.05,0.59,0.22,0.75c0.12,0.12,0.47,0.09,0.7,0.03c0.18-0.05,0.32-0.25,0.46-0.39
			c1.8-1.74,3.61-3.47,5.4-5.23c0.52-0.51,0.91-0.47,1.4,0.02c1.24,1.28,2.51,2.54,3.78,3.78c0.6,0.59,1.21,1.17,1.88,1.67
			c0.22,0.16,0.65,0.05,0.98,0.06c-0.03-0.34,0.06-0.78-0.11-1c-0.51-0.63-1.16-1.15-1.69-1.78c-0.16-0.19-0.1-0.57-0.14-0.87
			c0.31,0.03,0.71-0.05,0.91,0.11c0.57,0.46,1.05,1.02,1.57,1.53c0.6,0.59,0.99,1.23,0.69,2.11C32.22,25.32,31.54,25.67,30.52,25.66
			z M20.65,30.48c0.04-0.11,0.08-0.16,0.08-0.21c0.01-1.08-0.05-2.17,0.04-3.24c0.07-0.76,0.25-1.55,0.56-2.24
			c0.47-1.07,1.83-1.73,2.9-1.57c1.41,0.2,2.43,1.1,2.64,2.42c0.1,0.66,0.09,1.34,0.1,2.01c0.02,0.95,0,1.9,0,2.89
			c0.52,0,0.9,0,1.28,0c0.73,0.01,1.14-0.26,1.1-1.08c-0.05-1.02-0.08-2.05,0.01-3.07c0.08-0.94-0.22-1.59-0.92-2.24
			c-1.53-1.4-2.94-2.91-4.65-4.63c-0.21,0.35-0.32,0.67-0.54,0.9c-0.73,0.76-1.42,1.58-2.25,2.21c-1.57,1.19-2.87,2.45-2.43,4.67
			c0.08,0.42,0.01,0.87,0.01,1.31C18.57,30.64,18.57,30.64,20.65,30.48z M25.79,30.49c0-1.57,0.04-3.09-0.02-4.6
			c-0.03-0.87-0.84-1.49-1.75-1.52c-0.97-0.02-1.85,0.57-1.89,1.45c-0.07,1.54-0.02,3.08-0.02,4.66
			C23.35,30.49,24.5,30.49,25.79,30.49z"/>
		<path class="st0" d="M26.9,40.27c0-1.1-0.04-2.15,0.03-3.18c0.01-0.2,0.45-0.47,0.73-0.55c2.05-0.54,3.82-1.53,5.4-2.93
			c5.25-4.67,5.81-13.08,1.21-18.4c-0.27-0.31-0.55-0.61-0.81-0.92c-0.67-0.8-0.65-1.76,0.03-2.44c0.69-0.68,1.73-0.65,2.51,0.06
			c2.36,2.17,3.93,4.82,4.63,7.94c1.07,4.82,0.38,9.41-2.57,13.41C35.34,36.97,31.74,39.56,26.9,40.27z"/>
		<path class="st0" d="M25.79,38.3c0,1.08,0.02,2.16-0.01,3.23c-0.02,0.79-0.5,1.04-1.15,0.58c-1.48-1.02-2.95-2.06-4.41-3.12
			c-0.71-0.52-0.71-0.88,0.02-1.41c1.45-1.06,2.92-2.1,4.4-3.13c0.63-0.44,1.13-0.18,1.15,0.6C25.8,36.15,25.79,37.23,25.79,38.3z"
			/>
		<path class="st0" d="M22.11,9.25c0-1.08-0.02-2.16,0.01-3.24c0.02-0.79,0.5-1.06,1.15-0.59c1.47,1.05,2.92,2.13,4.37,3.21
			c0.52,0.39,0.53,0.81,0,1.21c-1.47,1.1-2.94,2.21-4.43,3.28c-0.57,0.41-1.07,0.12-1.09-0.62C22.09,11.41,22.11,10.33,22.11,9.25z"
			/>
		<path class="st0" d="M20.65,30.48c-2.08,0.16-2.08,0.16-2.08-1.87c0-0.44,0.07-0.89-0.01-1.31c-0.45-2.23,0.86-3.48,2.43-4.67
			c0.83-0.63,1.52-1.45,2.25-2.21c0.22-0.23,0.34-0.55,0.54-0.9c1.71,1.72,3.13,3.23,4.65,4.63c0.71,0.65,1,1.29,0.92,2.24
			c-0.08,1.02-0.06,2.05-0.01,3.07c0.04,0.82-0.36,1.09-1.1,1.08c-0.38,0-0.75,0-1.28,0c0-0.99,0.01-1.94,0-2.89
			c-0.01-0.67,0-1.35-0.1-2.01c-0.21-1.32-1.23-2.22-2.64-2.42c-1.07-0.15-2.43,0.51-2.9,1.57c-0.31,0.7-0.49,1.48-0.56,2.24
			c-0.1,1.07-0.03,2.16-0.04,3.24C20.73,30.32,20.69,30.37,20.65,30.48z"/>
		<path class="st0" d="M25.79,30.49c-1.28,0-2.44,0-3.67,0c0-1.58-0.05-3.12,0.02-4.66c0.04-0.89,0.92-1.48,1.89-1.45
			c0.91,0.02,1.71,0.65,1.75,1.52C25.83,27.4,25.79,28.92,25.79,30.49z"/>
	</g>
</g>
</svg>
