<?xml version="1.0" encoding="utf-8"?>
<!-- Generator: Adobe Illustrator 27.0.0, SVG Export Plug-In . SVG Version: 6.00 Build 0)  -->
<svg version="1.1" id="Layer_1" xmlns="http://www.w3.org/2000/svg" xmlns:xlink="http://www.w3.org/1999/xlink" x="0px" y="0px"
	 viewBox="0 0 50 50" style="enable-background:new 0 0 50 50;" xml:space="preserve">
<style type="text/css">
	.st0{fill:#FFFFFF;}
</style>
<g>
	<g>
		<path class="st0" d="M50,50c-16.66,0-33.32,0-50,0C0,33.35,0,16.69,0,0c16.65,0,33.33,0,50,0C50,16.65,50,33.32,50,50z
			 M37.8,37.32c0.63,0.66,1.2,1.3,1.82,1.9c1.19,1.15,2.41,2.26,3.6,3.4c0.67,0.64,0.74,1.53,0.21,2.07
			c-0.56,0.56-1.24,0.48-1.94-0.26c-0.48-0.51-0.94-1.05-1.46-1.63c-0.24,0.33-0.47,0.65-0.72,0.99c0.48,0.52,0.92,1.01,1.37,1.48
			c1.13,1.17,2.54,1.26,3.56,0.24c1.01-1,0.94-2.6-0.18-3.68c-2.1-2.04-4.21-4.08-6.32-6.11c-0.45-0.44-0.95-0.83-1.38-1.29
			c-0.3-0.31-0.54-0.64-0.22-1.16c1.38-2.23,1.8-4.68,1.41-7.24c-0.55-3.68-2.35-6.56-5.71-8.28c-0.99-0.5-1.88-0.93-2.19-2.1
			c-0.08-0.28-0.4-0.52-0.66-0.71c-2.04-1.52-4.69-0.51-5.31,1.37c-0.12,0.35-0.29,0.78-0.57,0.96c-0.64,0.41-1.36,0.7-2.12,1.07
			c0-0.81,0.02-1.52-0.01-2.24c-0.05-1.19-0.76-1.88-1.93-1.9c-1.11-0.01-2.22-0.02-3.33,0c-1.03,0.02-1.75,0.62-1.8,1.62
			c-0.07,1.35-0.08,2.7-0.01,4.05c0.07,1.24,0.67,1.73,1.93,1.76c0.68,0.01,1.35,0,2.08,0c-0.39,0.92-0.72,1.74-1.08,2.55
			c-0.05,0.12-0.2,0.2-0.31,0.28c-0.44,0.34-0.93,0.63-1.32,1.02c-1.59,1.57-1.48,4.48,0.48,5.52c1.32,0.7,1.85,1.81,2.58,2.87
			c0.2,0.29,0.33,0.64,0.57,0.9c2.53,2.77,5.59,4.31,9.41,3.71c1.36-0.21,2.71-0.71,3.97-1.28c0.68-0.3,1.05-0.36,1.48,0.25
			c0.32,0.46,0.68,0.9,1.06,1.32c0.65,0.72,1.33,1.42,2.07,2.2c0.31-0.32,0.53-0.55,0.74-0.78C36.44,38.61,36.44,38.61,37.8,37.32z
			 M11.54,28.11C11.54,28.11,11.54,28.11,11.54,28.11c0-0.66,0.02-1.32-0.01-1.98c-0.06-1.24-0.7-1.85-1.93-1.87
			c-1.02-0.01-2.04,0.03-3.05-0.01c-1.24-0.05-1.92,0.61-2.04,1.98c-0.11,1.22-0.05,2.45-0.01,3.68c0.03,1.07,0.69,1.74,1.75,1.77
			c1.2,0.04,2.4,0.04,3.59,0c1.08-0.03,1.68-0.67,1.71-1.77C11.56,29.31,11.54,28.71,11.54,28.11z M30.93,7.82c0-0.6,0.01-1.2,0-1.8
			c-0.02-1.15-0.69-1.87-1.82-1.9c-1.14-0.03-2.28-0.03-3.41,0c-1.15,0.03-1.79,0.71-1.81,1.89c-0.02,1.17-0.02,2.34,0,3.51
			c0.02,1.24,0.82,2.02,2.07,2.02c0.99,0.01,1.98,0.01,2.97,0c1.15-0.01,1.98-0.84,2.01-2.01C30.94,8.96,30.93,8.39,30.93,7.82z
			 M4.55,8.47c-0.23,2.26,0.47,3.07,2.59,3.07c0.81,0,1.62,0.01,2.43,0c1.14-0.01,1.94-0.79,1.97-1.94c0.03-1.2,0.02-2.4,0-3.59
			c-0.02-1.21-0.68-1.86-1.9-1.89C8.77,4.1,7.89,4.18,7.03,4.1C5.15,3.92,4.09,5.02,4.6,7.16c0.32,0,0.63,0,1.02,0
			c0-0.38-0.01-0.71,0-1.03c0.01-0.59,0.32-0.88,0.9-0.88c1.02,0,2.04-0.01,3.05,0c0.58,0.01,0.86,0.29,0.84,0.9
			c-0.03,1.05-0.03,2.1,0,3.14c0.02,0.71-0.31,0.96-0.98,0.93c-0.69-0.03-1.38-0.01-2.07-0.01c-1.65,0-1.65,0-1.8-1.6
			c0-0.05-0.06-0.09-0.11-0.16C5.19,8.47,4.9,8.47,4.55,8.47z M11.54,17.91c-0.01-2.12-1.54-3.73-3.53-3.72
			c-1.98,0.02-3.59,1.69-3.51,3.77c0.06,1.77,1.39,3.66,3.52,3.68C10.14,21.66,11.57,19.7,11.54,17.91z M21.23,7.86
			c0.01-2.14-1.49-3.74-3.51-3.75c-2.01,0-3.47,1.6-3.55,3.73c-0.07,1.98,2.09,3.7,3.54,3.7C19.17,11.56,21.4,9.83,21.23,7.86z
			 M38.44,42.68c0.3-0.28,0.54-0.51,0.82-0.78c-0.27-0.31-0.49-0.56-0.75-0.85c-0.33,0.31-0.56,0.53-0.85,0.8
			C37.93,42.14,38.16,42.39,38.44,42.68z"/>
		<path d="M37.8,37.32c-1.36,1.29-1.36,1.29-0.21,2.88c-0.21,0.22-0.43,0.46-0.74,0.78c-0.74-0.78-1.42-1.48-2.07-2.2
			c-0.38-0.42-0.74-0.86-1.06-1.32c-0.43-0.61-0.8-0.56-1.48-0.25c-1.26,0.56-2.61,1.06-3.97,1.28c-3.82,0.6-6.88-0.94-9.41-3.71
			c-0.24-0.26-0.36-0.61-0.57-0.9c-0.73-1.06-1.26-2.17-2.58-2.87c-1.96-1.04-2.07-3.95-0.48-5.52c0.39-0.39,0.88-0.68,1.32-1.02
			c0.11-0.09,0.26-0.17,0.31-0.28c0.36-0.81,0.69-1.63,1.08-2.55c-0.73,0-1.41,0.01-2.08,0c-1.25-0.03-1.85-0.51-1.93-1.76
			c-0.08-1.34-0.06-2.7,0.01-4.05c0.05-1,0.77-1.6,1.8-1.62c1.11-0.02,2.22-0.02,3.33,0c1.17,0.01,1.88,0.71,1.93,1.9
			c0.03,0.72,0.01,1.43,0.01,2.24c0.77-0.37,1.49-0.66,2.12-1.07c0.28-0.18,0.45-0.61,0.57-0.96c0.62-1.88,3.27-2.9,5.31-1.37
			c0.26,0.19,0.58,0.44,0.66,0.71c0.32,1.17,1.21,1.59,2.19,2.1c3.37,1.72,5.16,4.6,5.71,8.28c0.38,2.57-0.03,5.02-1.41,7.24
			c-0.33,0.53-0.08,0.85,0.22,1.16c0.43,0.46,0.93,0.85,1.38,1.29c2.11,2.03,4.22,4.07,6.32,6.11c1.11,1.09,1.18,2.68,0.18,3.68
			c-1.02,1.02-2.43,0.93-3.56-0.24c-0.46-0.47-0.9-0.96-1.37-1.48c0.25-0.35,0.48-0.67,0.72-0.99c0.52,0.58,0.97,1.12,1.46,1.63
			c0.7,0.74,1.38,0.82,1.94,0.26c0.53-0.54,0.46-1.43-0.21-2.07c-1.19-1.14-2.41-2.25-3.6-3.4C39,38.63,38.43,37.99,37.8,37.32z
			 M17.57,27.61c-0.1,5.18,4.1,9.85,9.5,9.85c5.39-0.01,9.48-4.71,9.48-9.88c0-5.13-4.16-9.88-9.51-9.87
			C21.69,17.72,17.45,22.44,17.57,27.61z M15.08,17.84c0,0.54,0.02,1.08,0,1.62c-0.03,0.62,0.25,0.87,0.86,0.85
			c0.84-0.02,1.68,0.02,2.51-0.02c0.26-0.01,0.55-0.16,0.78-0.32c0.87-0.58,0.58-1.49,0.59-2.3c0.02-2.64,0.2-2.34-2.27-2.34
			C14.68,15.34,15.12,15.03,15.08,17.84z M35.49,37.67c0.5-0.43,0.93-0.79,1.39-1.18c-0.59-0.54-1.14-1.05-1.64-1.51
			c-0.41,0.38-0.8,0.74-1.21,1.11C34.54,36.65,35.05,37.19,35.49,37.67z M24.96,16.62c1.25,0,2.52,0,3.84,0
			C27.68,14.81,25.69,15.05,24.96,16.62z M16.55,30.15c-0.06-1.34-0.13-2.68-0.19-4C14.92,26.68,15.01,29.41,16.55,30.15z"/>
		<path d="M11.54,28.11c0,0.6,0.02,1.2,0,1.8c-0.03,1.1-0.63,1.74-1.71,1.77c-1.2,0.03-2.4,0.03-3.59,0
			c-1.06-0.03-1.72-0.7-1.75-1.77c-0.03-1.23-0.09-2.46,0.01-3.68c0.12-1.37,0.81-2.03,2.04-1.98c1.02,0.04,2.04,0,3.05,0.01
			c1.23,0.01,1.87,0.63,1.93,1.87C11.57,26.79,11.54,27.45,11.54,28.11C11.54,28.11,11.54,28.11,11.54,28.11z M10.42,28.15
			c0-0.09,0-0.18,0-0.27c-0.03-2.44,0.37-2.3-2.32-2.29c-2.67,0.01-2.48-0.34-2.48,2.52c0,2.88-0.16,2.44,2.44,2.44
			C10.75,30.57,10.4,30.87,10.42,28.15z"/>
		<path d="M30.93,7.82c0,0.57,0.01,1.14,0,1.71c-0.03,1.17-0.86,2-2.01,2.01c-0.99,0.01-1.98,0.01-2.97,0
			c-1.25-0.01-2.05-0.78-2.07-2.02c-0.02-1.17-0.02-2.34,0-3.51c0.02-1.18,0.66-1.86,1.81-1.89c1.14-0.03,2.28-0.03,3.41,0
			c1.13,0.03,1.8,0.74,1.82,1.9C30.94,6.62,30.93,7.22,30.93,7.82z M25,7.73c0,0.48,0.03,0.96-0.01,1.44
			c-0.05,0.75,0.23,1.11,1.03,1.08c0.93-0.04,1.86-0.04,2.78,0c0.75,0.03,1.02-0.32,1.01-1.02c-0.02-0.99-0.02-1.98,0-2.96
			c0.01-0.73-0.35-1.02-1.05-1.01c-0.87,0.02-1.74,0-2.6,0.01C25.13,5.26,25,5.41,25,6.47C25,6.89,25,7.31,25,7.73z"/>
		<path d="M4.55,8.47c0.35,0,0.64,0,0.91,0c0.05,0.07,0.11,0.11,0.11,0.16c0.15,1.6,0.15,1.6,1.8,1.6c0.69,0,1.38-0.02,2.07,0.01
			c0.67,0.03,1-0.22,0.98-0.93c-0.03-1.05-0.03-2.1,0-3.14c0.02-0.61-0.27-0.9-0.84-0.9c-1.02-0.01-2.04-0.01-3.05,0
			c-0.58,0-0.89,0.29-0.9,0.88c-0.01,0.32,0,0.65,0,1.03c-0.39,0-0.71,0-1.02,0C4.09,5.02,5.15,3.92,7.03,4.1
			c0.86,0.08,1.74,0,2.6,0.02c1.22,0.02,1.89,0.68,1.9,1.89c0.02,1.2,0.02,2.4,0,3.59c-0.03,1.15-0.83,1.93-1.97,1.94
			c-0.81,0.01-1.62,0-2.43,0C5.02,11.54,4.32,10.73,4.55,8.47z"/>
		<path d="M11.54,17.91c0.03,1.79-1.41,3.75-3.53,3.73c-2.13-0.02-3.46-1.92-3.52-3.68c-0.08-2.07,1.53-3.75,3.51-3.77
			C10.01,14.18,11.54,15.79,11.54,17.91z M10.42,17.94c0-1.28-1.17-2.57-2.35-2.59c-1.19-0.02-2.45,1.33-2.42,2.61
			c0.03,1.27,1.1,2.33,2.36,2.35C9.33,20.32,10.41,19.25,10.42,17.94z"/>
		<path d="M21.23,7.86c0.17,1.97-2.06,3.7-3.52,3.69c-1.44-0.01-3.61-1.72-3.54-3.7c0.08-2.13,1.54-3.73,3.55-3.73
			C19.74,4.12,21.24,5.72,21.23,7.86z M17.72,10.23c1.3,0,2.42-1.12,2.4-2.4c-0.02-1.47-1.09-2.59-2.44-2.55
			c-1.34,0.03-2.35,1.13-2.36,2.55C15.3,9.11,16.43,10.23,17.72,10.23z"/>
		<path d="M38.44,42.68c-0.27-0.29-0.51-0.54-0.77-0.83c0.29-0.27,0.52-0.49,0.85-0.8c0.25,0.29,0.48,0.54,0.75,0.85
			C38.98,42.17,38.73,42.4,38.44,42.68z"/>
		<path class="st0" d="M17.57,27.61c-0.12-5.16,4.12-9.89,9.46-9.9c5.36-0.01,9.51,4.74,9.51,9.87c0,5.17-4.09,9.87-9.48,9.88
			C21.67,37.46,17.47,32.79,17.57,27.61z M35.32,27.69c0.13-4.55-3.56-8.74-8.19-8.78c-4.47-0.04-8.32,3.77-8.37,8.62
			c-0.05,4.5,3.48,8.63,8.17,8.72C31.51,36.33,35.35,32.27,35.32,27.69z"/>
		<path class="st0" d="M15.08,17.84c0.04-2.81-0.4-2.5,2.46-2.5c2.48,0,2.29-0.3,2.27,2.34c0,0.8,0.28,1.72-0.59,2.3
			c-0.23,0.15-0.51,0.3-0.78,0.32c-0.84,0.04-1.68,0-2.51,0.02c-0.61,0.01-0.89-0.24-0.86-0.85C15.1,18.92,15.08,18.38,15.08,17.84z
			"/>
		<path class="st0" d="M35.49,37.67c-0.44-0.47-0.95-1.02-1.46-1.58c0.41-0.38,0.8-0.73,1.21-1.11c0.5,0.46,1.05,0.97,1.64,1.51
			C36.42,36.87,35.99,37.24,35.49,37.67z"/>
		<path class="st0" d="M24.96,16.62c0.73-1.57,2.73-1.81,3.84,0C27.48,16.62,26.21,16.62,24.96,16.62z"/>
		<path class="st0" d="M16.55,30.15c-1.54-0.75-1.63-3.47-0.19-4C16.42,27.48,16.48,28.81,16.55,30.15z"/>
		<path class="st0" d="M10.42,28.15c-0.02,2.72,0.32,2.42-2.36,2.41c-2.6-0.01-2.44,0.44-2.44-2.44c0-2.86-0.19-2.51,2.48-2.52
			c2.69-0.01,2.29-0.15,2.32,2.29C10.42,27.97,10.42,28.06,10.42,28.15z"/>
		<path class="st0" d="M25,7.73c0-0.42,0-0.84,0-1.26c0-1.07,0.13-1.21,1.16-1.22c0.87-0.01,1.74,0.01,2.6-0.01
			c0.7-0.01,1.06,0.28,1.05,1.01c-0.02,0.99-0.02,1.98,0,2.96c0.01,0.7-0.26,1.05-1.01,1.02c-0.93-0.04-1.86-0.04-2.78,0
			c-0.8,0.04-1.08-0.33-1.03-1.08C25.02,8.69,25,8.21,25,7.73z"/>
		<path class="st0" d="M10.42,17.94c0,1.32-1.09,2.39-2.41,2.37c-1.26-0.01-2.33-1.08-2.36-2.35c-0.03-1.28,1.23-2.63,2.42-2.61
			C9.25,15.37,10.42,16.66,10.42,17.94z"/>
		<path class="st0" d="M17.72,10.23c-1.29,0-2.42-1.12-2.41-2.4c0.01-1.43,1.02-2.52,2.36-2.55c1.35-0.03,2.42,1.09,2.44,2.55
			C20.13,9.11,19.02,10.23,17.72,10.23z"/>
		<path d="M35.32,27.69c0.03,4.57-3.81,8.64-8.39,8.55c-4.69-0.09-8.22-4.22-8.17-8.72c0.06-4.85,3.9-8.66,8.37-8.62
			C31.76,18.95,35.45,23.14,35.32,27.69z M19.94,27.61c-0.22,3.95,3.61,7.49,7.1,7.5c3.53,0.01,7.24-3.59,7.17-7.57
			c-0.08-4.29-3.7-7.44-7.19-7.42C23.56,20.15,19.81,23.24,19.94,27.61z"/>
		<path class="st0" d="M19.94,27.61c-0.13-4.37,3.62-7.46,7.07-7.49c3.49-0.03,7.11,3.12,7.19,7.42c0.07,3.98-3.64,7.58-7.17,7.57
			C23.55,35.1,19.72,31.56,19.94,27.61z M31.15,27.6C31.15,27.6,31.15,27.6,31.15,27.6c0-0.87,0.02-1.74-0.01-2.61
			c-0.03-1.01-0.6-1.65-1.61-1.68c-1.67-0.05-3.35-0.05-5.03,0.01c-0.93,0.03-1.52,0.62-1.54,1.55c-0.05,1.79-0.06,3.59-0.01,5.39
			c0.03,1,0.68,1.59,1.69,1.61c1.59,0.03,3.17,0.03,4.76,0c1.09-0.02,1.71-0.65,1.74-1.74C31.17,29.28,31.15,28.44,31.15,27.6z"/>
		<path d="M31.15,27.6c0,0.84,0.02,1.68-0.01,2.52c-0.03,1.09-0.65,1.73-1.74,1.74c-1.59,0.03-3.17,0.03-4.76,0
			c-1-0.02-1.66-0.6-1.69-1.61c-0.05-1.79-0.04-3.59,0.01-5.39c0.03-0.93,0.61-1.52,1.54-1.55c1.67-0.05,3.35-0.06,5.03-0.01
			c1.01,0.03,1.57,0.67,1.61,1.68C31.17,25.87,31.15,26.73,31.15,27.6C31.15,27.6,31.15,27.6,31.15,27.6z M24.09,27.58
			c0,0.78,0.02,1.55-0.01,2.33c-0.01,0.56,0.22,0.84,0.78,0.84c1.46,0,2.93,0.04,4.39-0.04c0.27-0.01,0.73-0.48,0.74-0.75
			c0.07-1.58,0.03-3.17,0.03-4.75c0-0.5-0.22-0.78-0.75-0.77c-1.49,0.01-2.99-0.03-4.48,0.04c-0.24,0.01-0.64,0.42-0.67,0.68
			C24.03,25.96,24.09,26.77,24.09,27.58z"/>
		<path class="st0" d="M24.09,27.58c0-0.81-0.06-1.62,0.03-2.42c0.03-0.26,0.43-0.67,0.67-0.68c1.49-0.06,2.99-0.03,4.48-0.04
			c0.54,0,0.75,0.27,0.75,0.77c0,1.58,0.04,3.17-0.03,4.75c-0.01,0.27-0.47,0.73-0.74,0.75c-1.46,0.07-2.93,0.03-4.39,0.04
			c-0.57,0-0.8-0.28-0.78-0.84C24.1,29.13,24.09,28.36,24.09,27.58z M28.73,26.94c0-0.39,0-0.7,0-1.03c-0.37,0-0.68,0-0.99,0
			c0,0.37,0,0.68,0,1.03C28.08,26.94,28.37,26.94,28.73,26.94z M27.75,28.26c0,0.32,0,0.65,0,1.02c0.33,0,0.64,0,0.98,0
			c0-0.36,0-0.67,0-1.02C28.4,28.26,28.11,28.26,27.75,28.26z"/>
		<path d="M28.73,26.94c-0.36,0-0.65,0-0.99,0c0-0.34,0-0.65,0-1.03c0.32,0,0.63,0,0.99,0C28.73,26.23,28.73,26.55,28.73,26.94z"/>
		<path d="M27.75,28.26c0.36,0,0.65,0,0.98,0c0,0.35,0,0.66,0,1.02c-0.35,0-0.66,0-0.98,0C27.75,28.91,27.75,28.58,27.75,28.26z"/>
	</g>
</g>
</svg>
