<?xml version="1.0" encoding="utf-8"?>
<!-- Generator: Adobe Illustrator 27.0.0, SVG Export Plug-In . SVG Version: 6.00 Build 0)  -->
<svg version="1.1" id="Layer_1" xmlns="http://www.w3.org/2000/svg" xmlns:xlink="http://www.w3.org/1999/xlink" x="0px" y="0px"
	 viewBox="0 0 50 50" style="enable-background:new 0 0 50 50;" xml:space="preserve">
<style type="text/css">
	.st0{fill:#FFFFFF;}
</style>
<g>
	<g>
		<path class="st0" d="M0,0c16.67,0,33.33,0,50,0c0,16.67,0,33.33,0,50c-16.67,0-33.33,0-50,0C0,33.33,0,16.67,0,0z M6.18,38.18
			c0.38,0,0.72,0,1.06,0c6.03,0,12.06,0.06,18.09-0.04c1.5-0.03,2.39,0.39,3.17,1.67c0.95,1.55,2.45,2.55,4.27,2.85
			c2.55,0.42,4.53-0.84,5.94-2.72c3.46-4.63,3.28-11.95-1.19-16.29c-0.26-0.26-0.48-0.71-0.48-1.07c-0.03-4.54-0.02-9.09-0.02-13.63
			c0-0.34,0-0.68,0-1.09c-1.22,0-2.32,0-3.5,0c0-0.5,0.01-0.93,0-1.36c-0.01-0.73-0.02-0.73-0.84-0.62c0,0.64,0,1.3,0,1.95
			c-1.31,0-2.55,0-3.83,0c0-0.71,0-1.34,0-2.17c-1.35,0.43-0.34,1.63-0.93,2.17c-1.17,0-2.37,0-3.63,0c0-0.5,0.01-0.93,0-1.37
			c-0.01-0.72-0.02-0.72-0.87-0.58c0,0.64,0,1.3,0,1.97c-1.29,0-2.5,0-3.81,0c0-0.7,0-1.36,0-2.01c-0.51-0.03-0.51-0.03-0.86,1.98
			c-1.22,0-2.45,0-3.67,0c-0.16-2.08-0.16-2.08-0.92-1.93c0,0.64,0,1.29,0,1.95c-1.27,0-2.45,0-3.62,0
			c-0.28-2.06-0.28-2.06-0.93-1.97c0,0.64,0,1.3,0,2.04c-1.17,0-2.27,0-3.42,0C6.18,18.02,6.18,28.05,6.18,38.18z"/>
		<path d="M6.18,38.18c0-10.13,0-20.16,0-30.27c1.15,0,2.24,0,3.42,0c0-0.73,0-1.39,0-2.04c0.65-0.09,0.65-0.09,0.93,1.97
			c1.17,0,2.35,0,3.62,0c0-0.66,0-1.31,0-1.95c0.76-0.14,0.76-0.14,0.92,1.93c1.22,0,2.45,0,3.67,0c0.35-2.01,0.35-2.01,0.86-1.98
			c0,0.65,0,1.3,0,2.01c1.3,0,2.51,0,3.81,0c0-0.67,0-1.33,0-1.97c0.85-0.14,0.85-0.14,0.87,0.58c0.01,0.43,0,0.87,0,1.37
			c1.26,0,2.46,0,3.63,0c0.6-0.54-0.42-1.75,0.93-2.17c0,0.83,0,1.46,0,2.17c1.29,0,2.52,0,3.83,0c0-0.65,0-1.31,0-1.95
			c0.83-0.12,0.83-0.12,0.84,0.62c0.01,0.43,0,0.86,0,1.36c1.18,0,2.28,0,3.5,0c0,0.41,0,0.75,0,1.09c0,4.54-0.01,9.09,0.02,13.63
			c0,0.36,0.22,0.81,0.48,1.07c4.48,4.34,4.65,11.66,1.19,16.29c-1.41,1.89-3.38,3.15-5.94,2.72c-1.82-0.3-3.32-1.3-4.27-2.85
			c-0.78-1.28-1.67-1.7-3.17-1.67c-6.03,0.1-12.06,0.04-18.09,0.04C6.9,38.18,6.56,38.18,6.18,38.18z M26.63,16.13
			c2.59,0,5.08,0,7.62,0c0,2.03,0,4.01,0,5.99c0.64,0.23,1.24,0.44,1.88,0.66c0-3.19,0-6.23,0-9.27c-9.74,0-19.43,0-29.11,0
			c0,7.84,0,15.62,0,23.41c6.64,0,13.2,0,19.88,0c-0.74-2.12-0.9-4.21-0.65-6.33c0.25-2.14,1.08-4.08,2.44-5.97
			c-0.82,0-1.42,0-2.05,0C26.63,21.76,26.63,18.97,26.63,16.13z M40.26,31.39c0.01-1.44-0.62-3.72-2.16-5.68
			c-0.83-1.06-1.85-1.97-3.21-2.27c-2.72-0.6-4.62,0.59-6.15,2.77c-1.05,1.5-1.62,3.2-1.74,5.01c-0.24,3.59,0.5,6.84,3.52,9.19
			c2.38,1.86,5.05,1.31,6.94-0.57C39.49,37.81,40.24,35.25,40.26,31.39z M6.99,12.25c9.79,0,19.47,0,29.16,0c0-1.09,0-2.12,0-3.14
			c-0.9,0-1.73,0-2.55,0c-0.04,0.32-0.07,0.57-0.1,0.79c-0.96,0.4-0.67-0.5-0.89-0.8c-1.24,0-2.42,0-3.62,0
			c-0.07,0.32-0.13,0.59-0.19,0.86c-0.09,0.04-0.18,0.08-0.27,0.12c-0.19-0.31-0.39-0.61-0.63-0.99c-1.1,0-2.31,0-3.55,0
			c-0.05,0.31-0.09,0.59-0.13,0.81c-0.92,0.38-0.69-0.42-0.85-0.82c-1.22,0-2.4,0-3.65,0c-0.07,0.45,0.05,1.13-0.81,0.82
			c-0.03-0.25-0.07-0.53-0.11-0.82c-1.27,0-2.48,0-3.73,0c-0.11,0.42,0.12,1.19-0.78,0.8c-0.05-0.26-0.1-0.53-0.16-0.8
			c-1.25,0-2.43,0-3.64,0c-0.11,0.46,0.02,1.15-0.84,0.81C9.63,9.64,9.59,9.37,9.56,9.11c-0.89,0-1.72,0-2.57,0
			C6.99,10.18,6.99,11.18,6.99,12.25z M33.48,17.36c-2.06,0-4.02,0-5.98,0c0,2.09,0,4.12,0,6.32c0.96-0.1,1.9-0.08,2.75-0.33
			c1.09-0.33,2.12-0.89,3.22-1.37C33.48,20.52,33.48,18.96,33.48,17.36z"/>
		<path class="st0" d="M26.63,16.13c0,2.84,0,5.62,0,8.49c0.63,0,1.23,0,2.05,0c-1.36,1.89-2.18,3.83-2.44,5.97
			c-0.25,2.12-0.09,4.22,0.65,6.33c-6.67,0-13.23,0-19.88,0c0-7.79,0-15.57,0-23.41c9.69,0,19.37,0,29.11,0c0,3.05,0,6.09,0,9.27
			c-0.64-0.22-1.23-0.43-1.88-0.66c0-1.99,0-3.96,0-5.99C31.71,16.13,29.22,16.13,26.63,16.13z M17.78,16.14c0,2.87,0,5.67,0,8.52
			c2.54,0,5.02,0,7.53,0c0-2.86,0-5.67,0-8.52C22.81,16.14,20.35,16.14,17.78,16.14z M25.32,25.93c-2.56,0-5.04,0-7.54,0
			c0,2.86,0,5.64,0,8.46c2.53,0,5.02,0,7.54,0C25.32,31.56,25.32,28.77,25.32,25.93z M8.94,16.13c0,2.88,0,5.68,0,8.51
			c2.53,0,5,0,7.47,0c0-2.88,0-5.68,0-8.51C13.91,16.13,11.47,16.13,8.94,16.13z M8.92,34.39c2.56,0,5.02,0,7.49,0
			c0-2.86,0-5.67,0-8.47c-2.53,0-4.99,0-7.49,0C8.92,28.76,8.92,31.54,8.92,34.39z"/>
		<path class="st0" d="M40.26,31.39c-0.02,3.86-0.77,6.42-2.8,8.45c-1.9,1.89-4.56,2.43-6.94,0.57c-3.01-2.35-3.75-5.61-3.52-9.19
			c0.12-1.81,0.69-3.51,1.74-5.01c1.53-2.18,3.43-3.37,6.15-2.77c1.37,0.3,2.38,1.2,3.21,2.27C39.63,27.67,40.27,29.95,40.26,31.39z
			 M33.22,26.6c0,1.19,0.02,2.35-0.01,3.51c-0.01,0.29-0.08,0.67-0.27,0.84c-0.81,0.72-0.78,1.62-0.47,2.47
			c0.14,0.41,0.77,0.99,1.06,0.93c0.9-0.2,1.17,0.36,1.53,0.89c0.25,0.37,0.53,0.73,0.81,1.11c0.5-0.47,0.59-0.86,0.15-1.37
			c-0.7-0.81-1.3-1.66-1.06-2.84c0.05-0.25-0.06-0.67-0.25-0.8c-0.82-0.55-0.62-1.35-0.63-2.1c-0.01-0.7-0.02-1.39,0-2.09
			C34.09,26.58,33.86,26.41,33.22,26.6z M33.27,39.56c0,0.4,0,0.76,0,1.28c0.32-0.15,0.67-0.2,0.74-0.36
			c0.11-0.26,0.03-0.6,0.03-0.91C33.73,39.56,33.51,39.56,33.27,39.56z M28.4,33c0.12-1.16,0.12-1.16-0.75-1.04
			c0,0.33,0,0.66,0,1.04C27.91,33,28.13,33,28.4,33z M38.82,33.17c0.36-0.17,0.68-0.22,0.78-0.4c0.11-0.19,0.1-0.57-0.03-0.74
			c-0.12-0.15-0.47-0.13-0.75-0.19C38.82,32.3,38.82,32.61,38.82,33.17z M37.56,37.02c-0.52,0.59-0.72,1.06,0.06,1.43
			C38.46,37.97,38,37.55,37.56,37.02z M33.26,24.2c0,0.42,0,0.75,0,1.15c0.28-0.02,0.52-0.03,0.79-0.04
			C34,24.76,34.3,24.07,33.26,24.2z M29.67,26.43c-0.63,0.52-0.63,0.52,0.06,1.31C30.15,27.28,30.5,26.83,29.67,26.43z M37.61,26.43
			c-0.82,0.49-0.44,0.91-0.03,1.4C37.94,27.34,38.48,26.92,37.61,26.43z M29.68,37.08c-0.4,0.53-0.86,0.96,0.07,1.47
			c0.19-0.17,0.39-0.35,0.59-0.54C30.07,37.63,29.89,37.38,29.68,37.08z"/>
		<path class="st0" d="M6.99,12.25c0-1.06,0-2.07,0-3.14c0.85,0,1.68,0,2.57,0c0.04,0.26,0.08,0.53,0.11,0.79
			c0.86,0.35,0.73-0.35,0.84-0.81c1.2,0,2.39,0,3.64,0c0.05,0.27,0.11,0.54,0.16,0.8c0.9,0.39,0.67-0.38,0.78-0.8
			c1.25,0,2.46,0,3.73,0c0.04,0.29,0.08,0.56,0.11,0.82c0.85,0.3,0.74-0.37,0.81-0.82c1.25,0,2.44,0,3.65,0
			c0.16,0.4-0.08,1.2,0.85,0.82c0.04-0.23,0.08-0.5,0.13-0.81c1.24,0,2.45,0,3.55,0c0.24,0.38,0.43,0.69,0.63,0.99
			c0.09-0.04,0.18-0.08,0.27-0.12C28.87,9.68,28.93,9.42,29,9.1c1.19,0,2.38,0,3.62,0c0.21,0.3-0.07,1.2,0.89,0.8
			c0.03-0.22,0.06-0.47,0.1-0.79c0.82,0,1.65,0,2.55,0c0,1.02,0,2.05,0,3.14C26.46,12.25,16.78,12.25,6.99,12.25z"/>
		<path class="st0" d="M33.48,17.36c0,1.6,0,3.16,0,4.62c-1.1,0.48-2.13,1.04-3.22,1.37c-0.85,0.26-1.79,0.23-2.75,0.33
			c0-2.21,0-4.23,0-6.32C29.46,17.36,31.42,17.36,33.48,17.36z"/>
		<path d="M17.78,16.14c2.56,0,5.02,0,7.53,0c0,2.85,0,5.65,0,8.52c-2.51,0-4.99,0-7.53,0C17.78,21.81,17.78,19.01,17.78,16.14z
			 M18.6,17.32c0,2.14,0,4.18,0,6.22c2,0,3.94,0,5.92,0c0-2.1,0-4.14,0-6.22C22.52,17.32,20.58,17.32,18.6,17.32z"/>
		<path d="M25.32,25.93c0,2.84,0,5.63,0,8.46c-2.52,0-5.01,0-7.54,0c0-2.83,0-5.61,0-8.46C20.28,25.93,22.76,25.93,25.32,25.93z
			 M18.54,33.21c2.05,0,4.01,0,6.04,0c0-1.99,0.02-3.91-0.03-5.83c-0.01-0.2-0.41-0.56-0.64-0.57c-1.6-0.05-3.2-0.04-4.81,0
			c-0.19,0-0.54,0.3-0.54,0.46C18.52,29.25,18.54,31.22,18.54,33.21z"/>
		<path d="M8.94,16.13c2.53,0,4.97,0,7.47,0c0,2.83,0,5.64,0,8.51c-2.47,0-4.94,0-7.47,0C8.94,21.81,8.94,19,8.94,16.13z
			 M9.72,17.32c0,2.14,0,4.18,0,6.22c2.02,0,3.96,0,5.93,0c0-2.1,0-4.14,0-6.22C13.65,17.32,11.71,17.32,9.72,17.32z"/>
		<path d="M8.92,34.39c0-2.85,0-5.63,0-8.47c2.5,0,4.96,0,7.49,0c0,2.81,0,5.61,0,8.47C13.94,34.39,11.48,34.39,8.92,34.39z
			 M9.65,33.23c2.05,0,4.01,0,6.06,0c0-2,0.02-3.94-0.03-5.88c0-0.19-0.38-0.52-0.59-0.52c-1.6-0.04-3.2-0.04-4.81,0
			c-0.22,0.01-0.6,0.33-0.61,0.52C9.63,29.28,9.65,31.22,9.65,33.23z"/>
		<path d="M33.22,26.6c0.64-0.19,0.87-0.02,0.85,0.55c-0.03,0.7-0.01,1.39,0,2.09c0.01,0.75-0.19,1.56,0.63,2.1
			c0.19,0.12,0.3,0.55,0.25,0.8c-0.24,1.19,0.37,2.04,1.06,2.84c0.44,0.51,0.35,0.9-0.15,1.37c-0.28-0.38-0.55-0.74-0.81-1.11
			c-0.37-0.54-0.64-1.09-1.53-0.89c-0.28,0.06-0.91-0.52-1.06-0.93c-0.3-0.85-0.33-1.75,0.47-2.47c0.19-0.17,0.27-0.55,0.27-0.84
			C33.24,28.95,33.22,27.79,33.22,26.6z M33.77,31.62c-0.11,0.01-0.21,0.01-0.32,0.02c-0.13,0.27-0.41,0.58-0.36,0.81
			c0.07,0.28,0.42,0.49,0.65,0.73c0.17-0.27,0.45-0.53,0.46-0.8C34.22,32.14,33.93,31.88,33.77,31.62z"/>
		<path d="M33.27,39.56c0.24,0,0.46,0,0.76,0c0,0.32,0.08,0.65-0.03,0.91c-0.07,0.17-0.42,0.22-0.74,0.36
			C33.27,40.31,33.27,39.95,33.27,39.56z"/>
		<path d="M28.4,33c-0.27,0-0.48,0-0.75,0c0-0.37,0-0.7,0-1.04C28.52,31.83,28.52,31.83,28.4,33z"/>
		<path d="M38.82,33.17c0-0.56,0-0.87,0-1.32c0.29,0.06,0.64,0.03,0.75,0.19c0.13,0.16,0.13,0.54,0.03,0.74
			C39.5,32.95,39.18,33,38.82,33.17z"/>
		<path d="M37.56,37.02c0.44,0.52,0.9,0.94,0.06,1.43C36.84,38.08,37.04,37.62,37.56,37.02z"/>
		<path d="M33.26,24.2c1.04-0.13,0.74,0.56,0.79,1.11c-0.28,0.02-0.51,0.03-0.79,0.04C33.26,24.95,33.26,24.62,33.26,24.2z"/>
		<path d="M29.67,26.43c0.83,0.4,0.47,0.86,0.06,1.31C29.05,26.95,29.05,26.95,29.67,26.43z"/>
		<path d="M37.61,26.43c0.87,0.49,0.33,0.91-0.03,1.4C37.17,27.34,36.79,26.91,37.61,26.43z"/>
		<path d="M29.68,37.08c0.21,0.3,0.39,0.55,0.66,0.93c-0.2,0.18-0.4,0.36-0.59,0.54C28.82,38.03,29.28,37.6,29.68,37.08z"/>
		<path class="st0" d="M18.6,17.32c1.98,0,3.92,0,5.92,0c0,2.08,0,4.13,0,6.22c-1.98,0-3.91,0-5.92,0
			C18.6,21.5,18.6,19.46,18.6,17.32z M23.13,18.67c-0.84,0.78-1.66,1.55-2.52,2.35c-0.24-0.4-0.41-0.69-0.59-0.97
			c-0.49,0.14-0.79,0.3-0.45,0.85c0.31,0.51,0.52,1.07,0.79,1.62c0.97-0.88,1.92-1.72,2.86-2.58
			C23.65,19.56,23.79,19.16,23.13,18.67z"/>
		<path class="st0" d="M18.54,33.21c0-1.99-0.01-3.97,0.02-5.94c0-0.16,0.35-0.45,0.54-0.46c1.6-0.04,3.21-0.04,4.81,0
			c0.23,0.01,0.63,0.36,0.64,0.57c0.05,1.92,0.03,3.84,0.03,5.83C22.54,33.21,20.58,33.21,18.54,33.21z"/>
		<path class="st0" d="M9.72,17.32c1.99,0,3.93,0,5.93,0c0,2.08,0,4.12,0,6.22c-1.98,0-3.92,0-5.93,0
			C9.72,21.5,9.72,19.46,9.72,17.32z"/>
		<path class="st0" d="M9.65,33.23c0-2-0.02-3.95,0.03-5.89c0-0.18,0.39-0.51,0.61-0.52c1.6-0.04,3.2-0.04,4.81,0
			c0.21,0.01,0.59,0.34,0.59,0.52c0.04,1.94,0.03,3.89,0.03,5.88C13.66,33.23,11.7,33.23,9.65,33.23z M11.14,29.7
			c-0.78,0.51-0.63,1.24,0.49,2.44c0.93-0.89,1.85-1.79,2.79-2.68c0.53-0.5,0.11-0.82-0.12-1.17c-0.87,0.81-1.71,1.58-2.57,2.37
			C11.5,30.28,11.33,30.01,11.14,29.7z"/>
		<path class="st0" d="M33.77,31.62c0.16,0.26,0.45,0.52,0.44,0.76c-0.01,0.27-0.3,0.53-0.46,0.8c-0.23-0.24-0.58-0.45-0.65-0.73
			c-0.06-0.23,0.23-0.54,0.36-0.81C33.56,31.63,33.67,31.63,33.77,31.62z"/>
		<path d="M23.13,18.67c0.66,0.49,0.52,0.89,0.09,1.28c-0.94,0.85-1.89,1.7-2.86,2.58c-0.26-0.55-0.48-1.11-0.79-1.62
			c-0.33-0.56-0.04-0.72,0.45-0.85c0.17,0.29,0.35,0.57,0.59,0.97C21.47,20.22,22.29,19.45,23.13,18.67z"/>
		<path d="M11.14,29.7c0.19,0.31,0.35,0.58,0.59,0.95c0.86-0.79,1.69-1.56,2.57-2.37c0.23,0.36,0.65,0.67,0.12,1.17
			c-0.94,0.88-1.86,1.79-2.79,2.68C10.51,30.94,10.36,30.21,11.14,29.7z"/>
	</g>
</g>
</svg>
