<?xml version="1.0" encoding="utf-8"?>
<!-- Generator: Adobe Illustrator 27.0.0, SVG Export Plug-In . SVG Version: 6.00 Build 0)  -->
<svg version="1.1" id="Layer_1" xmlns="http://www.w3.org/2000/svg" xmlns:xlink="http://www.w3.org/1999/xlink" x="0px" y="0px"
	 viewBox="0 0 50 50" style="enable-background:new 0 0 50 50;" xml:space="preserve">
<style type="text/css">
	.st0{fill:#FFFFFF;}
</style>
<g>
	<g>
		<path class="st0" d="M0,50C0,33.33,0,16.66,0,0c16.67,0,33.34,0,50,0c0,16.67,0,33.34,0,50C33.33,50,16.66,50,0,50z M24.87,14.95
			c0.77-1.5,1.58-2.97,2.28-4.48c0.43-0.93,0.82-2.08-0.07-2.86c-1-0.87-1.96,0.12-2.76,0.62c-0.95,0.6-1.64,0.6-2.43-0.16
			c-1.08-1.04-2.55-1.83-3.74-0.8c-1.81,1.57-3.26,1.5-5.1,0.22c-0.86-0.6-1.75,0.04-1.69,1.13c0.06,0.91,0.28,1.86,0.66,2.7
			c0.56,1.25,1.31,2.41,1.98,3.62c-2.08,0.61-2.35,1.43-1.22,3.69c-0.25,0.31-0.57,0.6-0.75,0.95c-0.26,0.51-0.43,1.06-0.64,1.6
			c0.49-0.33,1.11-0.57,1.45-1.02c0.8-1.07,1.7-1.53,3.09-1.48c2.95,0.12,5.9,0.05,8.85,0.03c1.02-0.01,1.74-0.5,1.92-1.54
			c0.17-0.98-0.3-1.65-1.2-2.03C25.28,15.04,25.04,15,24.87,14.95z M39.9,29.62c0-2.46,0.01-4.93,0-7.39
			c-0.01-1.31-0.55-1.95-1.82-1.96c-3.69-0.03-7.39-0.03-11.08,0c-1.22,0.01-1.81,0.63-1.82,1.86c-0.02,4.97-0.02,9.94,0,14.9
			c0.01,1.28,0.63,1.88,1.91,1.88c3.61,0.01,7.23,0.01,10.84,0c1.43,0,1.97-0.56,1.98-2.03C39.91,34.46,39.9,32.04,39.9,29.62z
			 M19.94,22.94c1.41,0.34,2.39,0.84,2.62,2.27c0.04,0.29,0.38,0.53,0.58,0.79c0.16-0.33,0.49-0.68,0.45-0.99
			c-0.19-1.38-1.04-2.4-2.33-2.74c-0.89-0.24-1.44-1.43-1.82-1.27c-0.64,0.26-1.09,1-1.91,1.27c-1.57,0.52-2.34,1.82-2.26,3.41
			c0.07,1.4,1.07,2.47,2.77,3.08c0.34,0.12,0.83,0.47,0.85,0.74c0.09,1.3,0.04,2.61,0.04,3.91c-1.48,0.03-2.16-0.5-2.67-1.93
			c-0.09-0.26-0.36-0.45-0.55-0.67c-0.14,0.29-0.44,0.6-0.4,0.87c0.19,1.48,1.24,2.2,2.5,2.77c0.45,0.2,0.77,0.68,1.2,0.93
			c0.22,0.13,0.57,0.04,0.86,0.05c0.01-0.93,0.81-0.85,1.37-1.08c1.34-0.56,2.28-1.49,2.39-3c0.1-1.28-0.92-2.53-2.39-3.11
			c-0.23-0.09-0.52-0.08-0.69-0.22c-0.24-0.2-0.55-0.5-0.56-0.76C19.91,25.88,19.94,24.48,19.94,22.94z M19.51,39.02
			c1.16-0.16,2.46-0.29,3.74-0.53c0.32-0.06,0.58-0.42,0.87-0.64c-0.38-0.12-0.75-0.35-1.13-0.34c-2.12,0.03-4.25,0.3-6.35,0.13
			c-3.83-0.32-6.44-2.81-7.04-6.29c-0.42-2.45-0.11-4.8,0.69-7.13c0.12-0.35-0.03-0.78-0.06-1.18c-0.3,0.26-0.81,0.47-0.86,0.77
			C9,25.92,8.38,28.07,8.47,30.19c0.19,4.67,2.78,7.47,7.34,8.4C16.96,38.82,18.16,38.87,19.51,39.02z"/>
		<path d="M24.87,14.95c0.17,0.05,0.41,0.09,0.63,0.18c0.9,0.37,1.37,1.05,1.2,2.03c-0.18,1.04-0.9,1.54-1.92,1.54
			c-2.95,0.02-5.91,0.09-8.85-0.03c-1.39-0.06-2.3,0.41-3.09,1.48c-0.34,0.45-0.96,0.69-1.45,1.02c0.21-0.54,0.38-1.09,0.64-1.6
			c0.18-0.35,0.5-0.64,0.75-0.95c-1.13-2.26-0.86-3.08,1.22-3.69c-0.67-1.21-1.42-2.37-1.98-3.62c-0.37-0.83-0.6-1.78-0.66-2.7
			c-0.07-1.09,0.83-1.73,1.69-1.13c1.84,1.29,3.3,1.36,5.1-0.22c1.19-1.03,2.66-0.24,3.74,0.8c0.79,0.76,1.48,0.76,2.43,0.16
			c0.79-0.5,1.76-1.49,2.76-0.62c0.9,0.78,0.5,1.93,0.07,2.86C26.45,11.98,25.64,13.45,24.87,14.95z M26.67,8.85
			c-0.13-0.08-0.26-0.16-0.39-0.24c-0.21,0.1-0.43,0.19-0.64,0.3c-2.42,1.27-3.17,1.16-5.24-0.6c-0.7-0.59-1.44-0.52-2.13,0.2
			c-1.38,1.42-2.76,1.6-4.57,0.7C13.29,9,12.88,8.79,12.21,8.45c0.16,0.72,0.17,1.19,0.37,1.56c0.74,1.41,1.53,2.79,2.3,4.18
			c0.4,0.73,0.96,1.07,1.88,0.68c0-0.66-0.06-1.36,0.03-2.04c0.04-0.33,0.35-0.62,0.54-0.93c0.16,0.29,0.42,0.58,0.45,0.88
			c0.07,0.72,0.02,1.44,0.02,2.16c1.15,0,2.11,0,3.16,0c0-0.81-0.04-1.55,0.02-2.27c0.02-0.26,0.3-0.5,0.46-0.76
			c0.19,0.26,0.51,0.51,0.54,0.79c0.08,0.72,0.03,1.46,0.03,2.16c0.94,0.39,1.49,0.11,1.92-0.66c0.44-0.79,1.01-1.5,1.42-2.3
			C25.85,10.92,26.24,9.87,26.67,8.85z M19.42,17.68c1.64,0,3.27,0.01,4.91,0c0.62,0,1.4,0.02,1.27-0.86
			c-0.05-0.32-0.8-0.74-1.24-0.75c-3.31-0.06-6.62-0.06-9.93,0c-0.44,0.01-0.87,0.5-1.31,0.77c0.43,0.28,0.84,0.77,1.28,0.8
			C16.06,17.74,17.74,17.68,19.42,17.68z"/>
		<path d="M39.9,29.62c0,2.42,0.01,4.84,0,7.27c-0.01,1.46-0.55,2.02-1.98,2.03c-3.61,0.01-7.23,0.01-10.84,0
			c-1.28,0-1.9-0.6-1.91-1.88c-0.02-4.97-0.02-9.94,0-14.9c0.01-1.23,0.6-1.85,1.82-1.86c3.69-0.04,7.39-0.04,11.08,0
			c1.27,0.01,1.82,0.65,1.82,1.96C39.91,24.69,39.9,27.15,39.9,29.62z M38.89,29.67c0-2.34-0.05-4.68,0.02-7.01
			c0.03-1.06-0.38-1.34-1.37-1.32c-3.36,0.04-6.73,0.04-10.09,0c-0.9-0.01-1.22,0.29-1.22,1.2c0.03,4.72,0.03,9.44,0,14.15
			c0,0.89,0.3,1.24,1.22,1.23c3.4-0.04,6.81-0.03,10.21,0c0.9,0.01,1.25-0.32,1.23-1.23C38.86,34.35,38.89,32.01,38.89,29.67z"/>
		<path d="M19.94,22.94c0,1.55-0.03,2.94,0.03,4.33c0.01,0.27,0.32,0.56,0.56,0.76c0.17,0.14,0.47,0.13,0.69,0.22
			c1.47,0.58,2.48,1.84,2.39,3.11c-0.11,1.51-1.05,2.44-2.39,3c-0.56,0.24-1.36,0.15-1.37,1.08c-0.29-0.01-0.64,0.08-0.86-0.05
			c-0.44-0.25-0.76-0.73-1.2-0.93c-1.25-0.57-2.31-1.29-2.5-2.77c-0.03-0.27,0.26-0.58,0.4-0.87c0.19,0.22,0.46,0.41,0.55,0.67
			c0.51,1.42,1.18,1.95,2.67,1.93c0-1.3,0.05-2.61-0.04-3.91c-0.02-0.27-0.51-0.62-0.85-0.74c-1.7-0.61-2.7-1.68-2.77-3.08
			c-0.08-1.59,0.69-2.89,2.26-3.41c0.83-0.27,1.28-1.01,1.91-1.27c0.39-0.16,0.93,1.04,1.82,1.27c1.3,0.34,2.15,1.35,2.33,2.74
			c0.04,0.3-0.29,0.66-0.45,0.99c-0.2-0.26-0.54-0.5-0.58-0.79C22.34,23.78,21.35,23.28,19.94,22.94z M18.83,27.76
			c0-1.61,0-3.15,0-4.7c-1.69,0.25-2.57,1.08-2.58,2.34C16.25,26.63,17.14,27.46,18.83,27.76z M19.98,29.09c0,1.5,0,2.93,0,4.35
			c1.42-0.04,2.55-0.98,2.57-2.11C22.58,30.22,21.57,29.3,19.98,29.09z"/>
		<path d="M19.51,39.02c-1.35-0.15-2.54-0.2-3.7-0.43c-4.56-0.93-7.15-3.73-7.34-8.4C8.38,28.07,9,25.92,9.37,23.81
			c0.05-0.3,0.56-0.52,0.86-0.77c0.03,0.39,0.18,0.83,0.06,1.18c-0.8,2.33-1.11,4.69-0.69,7.13c0.6,3.49,3.2,5.97,7.04,6.29
			c2.1,0.18,4.23-0.1,6.35-0.13c0.37,0,0.75,0.22,1.13,0.34c-0.29,0.22-0.55,0.58-0.87,0.64C21.96,38.73,20.66,38.86,19.51,39.02z"
			/>
		<path class="st0" d="M26.67,8.85c-0.44,1.02-0.83,2.07-1.33,3.06c-0.4,0.8-0.98,1.51-1.42,2.3c-0.43,0.77-0.98,1.04-1.92,0.66
			c0-0.69,0.05-1.43-0.03-2.16c-0.03-0.28-0.35-0.52-0.54-0.79c-0.16,0.25-0.44,0.49-0.46,0.76c-0.06,0.73-0.02,1.46-0.02,2.27
			c-1.05,0-2.01,0-3.16,0c0-0.72,0.05-1.44-0.02-2.16c-0.03-0.3-0.29-0.59-0.45-0.88c-0.19,0.31-0.5,0.6-0.54,0.93
			c-0.08,0.68-0.03,1.38-0.03,2.04c-0.93,0.39-1.48,0.05-1.88-0.68c-0.77-1.39-1.57-2.77-2.3-4.18c-0.19-0.37-0.2-0.84-0.37-1.56
			C12.88,8.79,13.29,9,13.7,9.21c1.8,0.9,3.19,0.72,4.57-0.7c0.7-0.72,1.44-0.79,2.13-0.2c2.07,1.75,2.82,1.87,5.24,0.6
			c0.21-0.11,0.43-0.2,0.64-0.3C26.42,8.69,26.55,8.77,26.67,8.85z"/>
		<path class="st0" d="M19.42,17.68c-1.68,0-3.36,0.06-5.03-0.04c-0.44-0.03-0.85-0.52-1.28-0.8c0.43-0.27,0.87-0.76,1.31-0.77
			c3.31-0.07,6.62-0.06,9.93,0c0.44,0.01,1.19,0.43,1.24,0.75c0.14,0.87-0.65,0.85-1.27,0.86C22.69,17.69,21.05,17.68,19.42,17.68z"
			/>
		<path class="st0" d="M38.89,29.67c0,2.34-0.02,4.68,0.01,7.01c0.01,0.91-0.34,1.23-1.23,1.23c-3.4-0.03-6.81-0.03-10.21,0
			c-0.92,0.01-1.22-0.34-1.22-1.23c0.03-4.72,0.03-9.44,0-14.15c-0.01-0.91,0.31-1.21,1.22-1.2c3.36,0.04,6.73,0.04,10.09,0
			c0.99-0.01,1.4,0.26,1.37,1.32C38.84,25,38.89,27.34,38.89,29.67z M32.57,27.34c0.57,0,1.15,0,1.72,0c3.08,0,3.06,0,2.95-3.05
			c-0.03-0.99-0.44-1.41-1.43-1.39c-1.68,0.03-3.37,0.01-5.05,0.01c-3.11,0-3.13,0.04-2.95,3.18c0.05,0.87,0.44,1.26,1.3,1.26
			C30.28,27.33,31.43,27.34,32.57,27.34z M29.03,30.27c0.52-0.3,0.93-0.54,1.34-0.78c-0.39-0.19-0.78-0.52-1.17-0.52
			c-0.45,0-0.89,0.31-1.34,0.48C28.21,29.69,28.56,29.94,29.03,30.27z M32.79,30.27c0.48-0.31,0.87-0.57,1.26-0.82
			c-0.4-0.17-0.81-0.49-1.21-0.48c-0.43,0.01-0.86,0.33-1.29,0.52C31.92,29.72,32.28,29.95,32.79,30.27z M36.59,28.69
			c-0.53,0.29-0.94,0.52-1.36,0.75c0.38,0.19,0.77,0.54,1.15,0.54c0.44,0,0.88-0.31,1.33-0.48C37.37,29.24,37.03,29,36.59,28.69z
			 M29.14,34.93c-0.52,0.36-0.9,0.62-1.28,0.88c0.42,0.15,0.84,0.41,1.26,0.41c0.42,0,0.83-0.26,1.25-0.4
			C30.01,35.56,29.64,35.29,29.14,34.93z M29.15,32.29c0.44-0.28,0.82-0.52,1.21-0.76c-0.4-0.16-0.81-0.46-1.2-0.45
			c-0.44,0.02-0.86,0.32-1.29,0.5C28.25,31.79,28.63,32,29.15,32.29z M32.86,32.28c0.42-0.28,0.8-0.53,1.17-0.77
			c-0.41-0.16-0.82-0.45-1.21-0.43c-0.43,0.02-0.84,0.34-1.26,0.52C31.94,31.8,32.33,32,32.86,32.28z M36.47,32.29
			c0.46-0.28,0.85-0.51,1.23-0.75c-0.39-0.17-0.79-0.47-1.18-0.46c-0.43,0.01-0.86,0.32-1.28,0.49C35.61,31.79,35.98,32,36.47,32.29
			z M29.12,34.47c0.5-0.31,0.87-0.54,1.23-0.77c-0.43-0.18-0.85-0.49-1.28-0.5c-0.4-0.01-0.81,0.29-1.21,0.45
			C28.26,33.9,28.64,34.15,29.12,34.47z M32.84,36.49c0.47-0.29,0.83-0.51,1.19-0.73c-0.43-0.18-0.86-0.48-1.29-0.49
			c-0.39-0.01-0.79,0.31-1.18,0.48C31.96,35.98,32.35,36.21,32.84,36.49z M36.37,36.49c0.52-0.27,0.93-0.48,1.34-0.7
			c-0.38-0.19-0.76-0.52-1.13-0.52c-0.44,0-0.88,0.29-1.33,0.45C35.59,35.96,35.93,36.19,36.37,36.49z M32.79,34.52
			c0.51-0.37,0.87-0.64,1.24-0.9c-0.41-0.15-0.82-0.42-1.23-0.42c-0.41,0-0.83,0.27-1.24,0.42C31.92,33.88,32.28,34.14,32.79,34.52z
			 M35.41,33.18c-0.09,0.12-0.18,0.24-0.26,0.36c0.24,0.22,0.47,0.62,0.72,0.63c0.58,0.03,1.16-0.13,1.75-0.21
			c-0.13-0.26-0.24-0.71-0.41-0.74C36.62,33.12,36.01,33.18,35.41,33.18z"/>
		<path class="st0" d="M18.83,27.76c-1.7-0.3-2.58-1.13-2.58-2.36c0-1.26,0.89-2.08,2.58-2.34C18.83,24.61,18.83,26.15,18.83,27.76z
			"/>
		<path class="st0" d="M19.98,29.09c1.59,0.21,2.59,1.12,2.57,2.24c-0.02,1.13-1.15,2.06-2.57,2.11
			C19.98,32.02,19.98,30.6,19.98,29.09z"/>
		<path d="M32.57,27.34c-1.15,0-2.3-0.01-3.45,0c-0.86,0.01-1.25-0.38-1.3-1.26c-0.18-3.14-0.16-3.18,2.95-3.18
			c1.68,0,3.37,0.02,5.05-0.01c0.98-0.02,1.39,0.4,1.43,1.39c0.1,3.05,0.12,3.05-2.95,3.05C33.72,27.34,33.15,27.34,32.57,27.34z
			 M36.17,24.03c-2.5,0-4.89,0-7.23,0c0,0.82,0,1.53,0,2.22c2.47,0,4.83,0,7.23,0C36.17,25.49,36.17,24.8,36.17,24.03z"/>
		<path d="M29.03,30.27c-0.47-0.33-0.82-0.57-1.18-0.82c0.45-0.17,0.89-0.48,1.34-0.48c0.39,0,0.78,0.33,1.17,0.52
			C29.96,29.72,29.55,29.96,29.03,30.27z"/>
		<path d="M32.79,30.27c-0.5-0.32-0.87-0.55-1.24-0.78c0.43-0.19,0.85-0.51,1.29-0.52c0.4-0.01,0.81,0.31,1.21,0.48
			C33.66,29.7,33.27,29.95,32.79,30.27z"/>
		<path d="M36.59,28.69c0.44,0.31,0.78,0.56,1.12,0.8c-0.44,0.18-0.88,0.48-1.33,0.48c-0.38,0-0.77-0.34-1.15-0.54
			C35.65,29.21,36.06,28.98,36.59,28.69z"/>
		<path d="M29.14,34.93c0.5,0.36,0.86,0.62,1.23,0.89c-0.42,0.15-0.83,0.41-1.25,0.4c-0.42,0-0.84-0.26-1.26-0.41
			C28.24,35.55,28.62,35.3,29.14,34.93z"/>
		<path d="M29.15,32.29c-0.52-0.29-0.91-0.5-1.29-0.71c0.43-0.18,0.86-0.49,1.29-0.5c0.39-0.02,0.8,0.29,1.2,0.45
			C29.98,31.77,29.59,32.01,29.15,32.29z"/>
		<path d="M32.86,32.28c-0.54-0.28-0.92-0.48-1.31-0.68c0.42-0.19,0.83-0.5,1.26-0.52c0.4-0.02,0.81,0.28,1.21,0.43
			C33.66,31.76,33.29,32,32.86,32.28z"/>
		<path d="M36.47,32.29c-0.49-0.29-0.86-0.5-1.23-0.72c0.43-0.18,0.85-0.48,1.28-0.49c0.39-0.01,0.79,0.3,1.18,0.46
			C37.32,31.78,36.93,32.01,36.47,32.29z"/>
		<path d="M29.12,34.47c-0.48-0.31-0.87-0.56-1.26-0.82c0.4-0.16,0.81-0.47,1.21-0.45c0.43,0.01,0.85,0.32,1.28,0.5
			C29.99,33.92,29.62,34.15,29.12,34.47z"/>
		<path d="M32.84,36.49c-0.48-0.28-0.88-0.51-1.28-0.74c0.39-0.17,0.79-0.49,1.18-0.48c0.43,0.01,0.86,0.32,1.29,0.49
			C33.67,35.98,33.31,36.2,32.84,36.49z"/>
		<path d="M36.37,36.49c-0.43-0.3-0.78-0.53-1.12-0.76c0.44-0.16,0.88-0.46,1.33-0.45c0.38,0,0.76,0.34,1.13,0.52
			C37.3,36.01,36.89,36.22,36.37,36.49z"/>
		<path d="M32.79,34.52c-0.51-0.37-0.87-0.64-1.23-0.91c0.41-0.15,0.83-0.42,1.24-0.42c0.41,0,0.82,0.27,1.23,0.42
			C33.66,33.88,33.3,34.15,32.79,34.52z"/>
		<path d="M35.41,33.18c0.6,0,1.21-0.06,1.8,0.04c0.17,0.03,0.27,0.48,0.41,0.74c-0.58,0.08-1.17,0.24-1.75,0.21
			c-0.25-0.01-0.48-0.41-0.72-0.63C35.23,33.42,35.32,33.3,35.41,33.18z"/>
		<path class="st0" d="M36.17,24.03c0,0.77,0,1.46,0,2.22c-2.4,0-4.76,0-7.23,0c0-0.69,0-1.4,0-2.22
			C31.29,24.03,33.67,24.03,36.17,24.03z"/>
	</g>
</g>
</svg>
